<mxfile host="Electron" modified="2024-06-27T18:04:48.369Z" agent="Mozilla/5.0 (Windows NT 10.0; Win64; x64) AppleWebKit/537.36 (KHTML, like Gecko) draw.io/24.6.1 Chrome/124.0.6367.207 Electron/30.0.6 Safari/537.36" etag="gQREXGyJlhgLWNaoyokD" version="24.6.1" type="device" pages="4">
  <diagram name="Fitting module and simulated annealing" id="4ttOccu7J3zMKC5cVIyK">
    <mxGraphModel dx="3179" dy="497" grid="1" gridSize="10" guides="1" tooltips="1" connect="1" arrows="1" fold="1" page="1" pageScale="1" pageWidth="2339" pageHeight="3300" math="0" shadow="0">
      <root>
        <mxCell id="0" />
        <mxCell id="1" parent="0" />
        <mxCell id="FgK2PDGZxnkYuvgnImA7-1" value="Parameters" style="swimlane;fontStyle=1;align=center;verticalAlign=top;childLayout=stackLayout;horizontal=1;startSize=26;horizontalStack=0;resizeParent=1;resizeParentMax=0;resizeLast=0;collapsible=1;marginBottom=0;whiteSpace=wrap;html=1;" parent="1" vertex="1">
          <mxGeometry x="290" y="1820" width="390" height="218" as="geometry" />
        </mxCell>
        <mxCell id="FgK2PDGZxnkYuvgnImA7-2" value="- std::array&amp;lt;double,size_p&amp;gt; m_parameters&lt;br&gt;- double m_error&lt;br&gt;- bool m_error_valid" style="text;strokeColor=none;fillColor=none;align=left;verticalAlign=top;spacingLeft=4;spacingRight=4;overflow=hidden;rotatable=0;points=[[0,0.5],[1,0.5]];portConstraint=eastwest;whiteSpace=wrap;html=1;" parent="FgK2PDGZxnkYuvgnImA7-1" vertex="1">
          <mxGeometry y="26" width="390" height="74" as="geometry" />
        </mxCell>
        <mxCell id="FgK2PDGZxnkYuvgnImA7-3" value="" style="line;strokeWidth=1;fillColor=none;align=left;verticalAlign=middle;spacingTop=-1;spacingLeft=3;spacingRight=3;rotatable=0;labelPosition=right;points=[];portConstraint=eastwest;strokeColor=inherit;" parent="FgK2PDGZxnkYuvgnImA7-1" vertex="1">
          <mxGeometry y="100" width="390" height="8" as="geometry" />
        </mxCell>
        <mxCell id="FgK2PDGZxnkYuvgnImA7-4" value="+ virtual double&amp;amp; operator []&amp;nbsp;&lt;br&gt;+ virtual const double&amp;amp; operator[]&amp;nbsp;&lt;br&gt;+ virtual const std::array&amp;lt;double,size_p&amp;gt;&amp;amp; getParameters()&amp;nbsp;&lt;br&gt;+ virtual double getError()&lt;br&gt;+ virtual void updateError(double error)&lt;br&gt;+ virtual bool isErrorValid();" style="text;strokeColor=none;fillColor=none;align=left;verticalAlign=top;spacingLeft=4;spacingRight=4;overflow=hidden;rotatable=0;points=[[0,0.5],[1,0.5]];portConstraint=eastwest;whiteSpace=wrap;html=1;" parent="FgK2PDGZxnkYuvgnImA7-1" vertex="1">
          <mxGeometry y="108" width="390" height="110" as="geometry" />
        </mxCell>
        <mxCell id="FgK2PDGZxnkYuvgnImA7-5" value="abstract SimplexFitter&amp;lt;DerivedSettings = SimplexSettings&amp;gt;" style="swimlane;fontStyle=1;align=center;verticalAlign=top;childLayout=stackLayout;horizontal=1;startSize=26;horizontalStack=0;resizeParent=1;resizeParentMax=0;resizeLast=0;collapsible=1;marginBottom=0;whiteSpace=wrap;html=1;" parent="1" vertex="1">
          <mxGeometry x="135" y="2530" width="430" height="184" as="geometry" />
        </mxCell>
        <mxCell id="FgK2PDGZxnkYuvgnImA7-6" value="- SimplexFigure m_simplexFigure" style="text;strokeColor=none;fillColor=none;align=left;verticalAlign=top;spacingLeft=4;spacingRight=4;overflow=hidden;rotatable=0;points=[[0,0.5],[1,0.5]];portConstraint=eastwest;whiteSpace=wrap;html=1;" parent="FgK2PDGZxnkYuvgnImA7-5" vertex="1">
          <mxGeometry y="26" width="430" height="124" as="geometry" />
        </mxCell>
        <mxCell id="FgK2PDGZxnkYuvgnImA7-7" value="" style="line;strokeWidth=1;fillColor=none;align=left;verticalAlign=middle;spacingTop=-1;spacingLeft=3;spacingRight=3;rotatable=0;labelPosition=right;points=[];portConstraint=eastwest;strokeColor=inherit;" parent="FgK2PDGZxnkYuvgnImA7-5" vertex="1">
          <mxGeometry y="150" width="430" height="8" as="geometry" />
        </mxCell>
        <mxCell id="FgK2PDGZxnkYuvgnImA7-8" value="+&amp;nbsp;" style="text;strokeColor=none;fillColor=none;align=left;verticalAlign=top;spacingLeft=4;spacingRight=4;overflow=hidden;rotatable=0;points=[[0,0.5],[1,0.5]];portConstraint=eastwest;whiteSpace=wrap;html=1;" parent="FgK2PDGZxnkYuvgnImA7-5" vertex="1">
          <mxGeometry y="158" width="430" height="26" as="geometry" />
        </mxCell>
        <mxCell id="FgK2PDGZxnkYuvgnImA7-9" value="&lt;font style=&quot;font-size: 27px;&quot;&gt;Simplex Module&lt;/font&gt;" style="rounded=1;whiteSpace=wrap;html=1;fillColor=#f8cecc;strokeColor=#b85450;" parent="1" vertex="1">
          <mxGeometry x="-520" y="340" width="700" height="60" as="geometry" />
        </mxCell>
        <mxCell id="FgK2PDGZxnkYuvgnImA7-10" value="abstrac Fitter&amp;lt;DerivedSettings = FitterSettings&amp;gt;" style="swimlane;fontStyle=1;align=center;verticalAlign=top;childLayout=stackLayout;horizontal=1;startSize=26;horizontalStack=0;resizeParent=1;resizeParentMax=0;resizeLast=0;collapsible=1;marginBottom=0;whiteSpace=wrap;html=1;" parent="1" vertex="1">
          <mxGeometry x="100" y="2210" width="500" height="260" as="geometry" />
        </mxCell>
        <mxCell id="FgK2PDGZxnkYuvgnImA7-11" value="- Parameters fittedParameters&lt;br&gt;- Parameters proposedParameters&lt;br&gt;- std::unique_ptr&amp;lt;DerivedSettings&amp;gt; m_fitterSettings" style="text;strokeColor=none;fillColor=none;align=left;verticalAlign=top;spacingLeft=4;spacingRight=4;overflow=hidden;rotatable=0;points=[[0,0.5],[1,0.5]];portConstraint=eastwest;whiteSpace=wrap;html=1;" parent="FgK2PDGZxnkYuvgnImA7-10" vertex="1">
          <mxGeometry y="26" width="500" height="94" as="geometry" />
        </mxCell>
        <mxCell id="FgK2PDGZxnkYuvgnImA7-12" value="" style="line;strokeWidth=1;fillColor=none;align=left;verticalAlign=middle;spacingTop=-1;spacingLeft=3;spacingRight=3;rotatable=0;labelPosition=right;points=[];portConstraint=eastwest;strokeColor=inherit;" parent="FgK2PDGZxnkYuvgnImA7-10" vertex="1">
          <mxGeometry y="120" width="500" height="8" as="geometry" />
        </mxCell>
        <mxCell id="FgK2PDGZxnkYuvgnImA7-13" value="+ virtual const&amp;nbsp;&amp;nbsp;Parameters&amp;amp; getFittedParameters() ;&lt;br&gt;+ virtual void fit() = 0;&lt;br&gt;+ virtual void setUp(const DerivedSettings&amp;amp; setting) = 0;&amp;nbsp;&lt;br&gt;+ virtual void proposeParameters(const Parameters&amp;amp;);" style="text;strokeColor=none;fillColor=none;align=left;verticalAlign=top;spacingLeft=4;spacingRight=4;overflow=hidden;rotatable=0;points=[[0,0.5],[1,0.5]];portConstraint=eastwest;whiteSpace=wrap;html=1;" parent="FgK2PDGZxnkYuvgnImA7-10" vertex="1">
          <mxGeometry y="128" width="500" height="132" as="geometry" />
        </mxCell>
        <mxCell id="FgK2PDGZxnkYuvgnImA7-14" value="abstrac FitterSetting" style="swimlane;fontStyle=1;align=center;verticalAlign=top;childLayout=stackLayout;horizontal=1;startSize=26;horizontalStack=0;resizeParent=1;resizeParentMax=0;resizeLast=0;collapsible=1;marginBottom=0;whiteSpace=wrap;html=1;" parent="1" vertex="1">
          <mxGeometry x="740" y="2220" width="330" height="230" as="geometry" />
        </mxCell>
        <mxCell id="FgK2PDGZxnkYuvgnImA7-15" value="p Model m_functionModel;&lt;br&gt;p ErrorModel m_functionErrorModel;&lt;br&gt;p double m_maxError;&lt;br&gt;p long int m_maxIteration;&lt;br&gt;p std::unique_ptr&amp;lt;Data&amp;gt; m_ref_data;" style="text;strokeColor=none;fillColor=none;align=left;verticalAlign=top;spacingLeft=4;spacingRight=4;overflow=hidden;rotatable=0;points=[[0,0.5],[1,0.5]];portConstraint=eastwest;whiteSpace=wrap;html=1;" parent="FgK2PDGZxnkYuvgnImA7-14" vertex="1">
          <mxGeometry y="26" width="330" height="74" as="geometry" />
        </mxCell>
        <mxCell id="FgK2PDGZxnkYuvgnImA7-16" value="" style="line;strokeWidth=1;fillColor=none;align=left;verticalAlign=middle;spacingTop=-1;spacingLeft=3;spacingRight=3;rotatable=0;labelPosition=right;points=[];portConstraint=eastwest;strokeColor=inherit;" parent="FgK2PDGZxnkYuvgnImA7-14" vertex="1">
          <mxGeometry y="100" width="330" height="8" as="geometry" />
        </mxCell>
        <mxCell id="FgK2PDGZxnkYuvgnImA7-17" value="+ virtual getFunctionModel(): const Model&amp;amp; = 0;&lt;br&gt;+ virtual getErrorModel(): const ErrorModel&amp;amp; = 0;&lt;br&gt;+ virtual getMaxErrorModel: double = 0;&lt;br&gt;+ virtual getMaxIteration: int = 0;&lt;br&gt;+all default and virtual destructor(def constr is deleted)" style="text;strokeColor=none;fillColor=none;align=left;verticalAlign=top;spacingLeft=4;spacingRight=4;overflow=hidden;rotatable=0;points=[[0,0.5],[1,0.5]];portConstraint=eastwest;whiteSpace=wrap;html=1;" parent="FgK2PDGZxnkYuvgnImA7-14" vertex="1">
          <mxGeometry y="108" width="330" height="122" as="geometry" />
        </mxCell>
        <mxCell id="FgK2PDGZxnkYuvgnImA7-23" value="SimplexFigure" style="swimlane;fontStyle=1;align=center;verticalAlign=top;childLayout=stackLayout;horizontal=1;startSize=26;horizontalStack=0;resizeParent=1;resizeParentMax=0;resizeLast=0;collapsible=1;marginBottom=0;whiteSpace=wrap;html=1;" parent="1" vertex="1">
          <mxGeometry x="-490" y="2070" width="350" height="190" as="geometry" />
        </mxCell>
        <mxCell id="FgK2PDGZxnkYuvgnImA7-24" value="- std::array&amp;lt;SimplexPoint,size_s&amp;gt; m_points&lt;br&gt;- SimplexPoint m_centroid&lt;br&gt;" style="text;strokeColor=none;fillColor=none;align=left;verticalAlign=top;spacingLeft=4;spacingRight=4;overflow=hidden;rotatable=0;points=[[0,0.5],[1,0.5]];portConstraint=eastwest;whiteSpace=wrap;html=1;" parent="FgK2PDGZxnkYuvgnImA7-23" vertex="1">
          <mxGeometry y="26" width="350" height="44" as="geometry" />
        </mxCell>
        <mxCell id="FgK2PDGZxnkYuvgnImA7-25" value="" style="line;strokeWidth=1;fillColor=none;align=left;verticalAlign=middle;spacingTop=-1;spacingLeft=3;spacingRight=3;rotatable=0;labelPosition=right;points=[];portConstraint=eastwest;strokeColor=inherit;" parent="FgK2PDGZxnkYuvgnImA7-23" vertex="1">
          <mxGeometry y="70" width="350" height="8" as="geometry" />
        </mxCell>
        <mxCell id="FgK2PDGZxnkYuvgnImA7-26" value="+ void sort(bool reverse = true)&lt;br&gt;+ SimplexPoint calculateCentroid()&lt;br&gt;+&amp;nbsp;const SimplexPoint&amp;amp;&amp;nbsp; getCentroid()&lt;br&gt;+&amp;nbsp;SimplexPoint&amp;amp; operator[](int p_index) and const version&lt;br&gt;+ const std::array&amp;lt;SimplexPoint, size_s&amp;gt;&amp;amp; getPoints()&amp;nbsp;" style="text;strokeColor=none;fillColor=none;align=left;verticalAlign=top;spacingLeft=4;spacingRight=4;overflow=hidden;rotatable=0;points=[[0,0.5],[1,0.5]];portConstraint=eastwest;whiteSpace=wrap;html=1;" parent="FgK2PDGZxnkYuvgnImA7-23" vertex="1">
          <mxGeometry y="78" width="350" height="112" as="geometry" />
        </mxCell>
        <mxCell id="FgK2PDGZxnkYuvgnImA7-27" value="SimplexPoint" style="swimlane;fontStyle=1;align=center;verticalAlign=top;childLayout=stackLayout;horizontal=1;startSize=26;horizontalStack=0;resizeParent=1;resizeParentMax=0;resizeLast=0;collapsible=1;marginBottom=0;whiteSpace=wrap;html=1;" parent="1" vertex="1">
          <mxGeometry x="-30" y="1467" width="460" height="160" as="geometry" />
        </mxCell>
        <mxCell id="FgK2PDGZxnkYuvgnImA7-28" value="- std::unique_ptr&amp;lt;Data&amp;gt; m_data;&lt;br&gt;- bool m_data_valid;" style="text;strokeColor=none;fillColor=none;align=left;verticalAlign=top;spacingLeft=4;spacingRight=4;overflow=hidden;rotatable=0;points=[[0,0.5],[1,0.5]];portConstraint=eastwest;whiteSpace=wrap;html=1;" parent="FgK2PDGZxnkYuvgnImA7-27" vertex="1">
          <mxGeometry y="26" width="460" height="44" as="geometry" />
        </mxCell>
        <mxCell id="FgK2PDGZxnkYuvgnImA7-29" value="" style="line;strokeWidth=1;fillColor=none;align=left;verticalAlign=middle;spacingTop=-1;spacingLeft=3;spacingRight=3;rotatable=0;labelPosition=right;points=[];portConstraint=eastwest;strokeColor=inherit;" parent="FgK2PDGZxnkYuvgnImA7-27" vertex="1">
          <mxGeometry y="70" width="460" height="8" as="geometry" />
        </mxCell>
        <mxCell id="FgK2PDGZxnkYuvgnImA7-30" value="+ opearators overload, especially overload of non const subscript&lt;br&gt;+ void updateData(const Data&amp;amp; data)&lt;br&gt;+&amp;nbsp;const Data&amp;amp; getData()&lt;br&gt;+&amp;nbsp;bool isDataValid()&lt;br&gt;+ constructors and assignment operators, default constr is deleted" style="text;strokeColor=none;fillColor=none;align=left;verticalAlign=top;spacingLeft=4;spacingRight=4;overflow=hidden;rotatable=0;points=[[0,0.5],[1,0.5]];portConstraint=eastwest;whiteSpace=wrap;html=1;" parent="FgK2PDGZxnkYuvgnImA7-27" vertex="1">
          <mxGeometry y="78" width="460" height="82" as="geometry" />
        </mxCell>
        <mxCell id="FgK2PDGZxnkYuvgnImA7-35" value="Model" style="swimlane;fontStyle=1;align=center;verticalAlign=top;childLayout=stackLayout;horizontal=1;startSize=26;horizontalStack=0;resizeParent=1;resizeParentMax=0;resizeLast=0;collapsible=1;marginBottom=0;whiteSpace=wrap;html=1;" parent="1" vertex="1">
          <mxGeometry x="1247" y="2300" width="420" height="216" as="geometry" />
        </mxCell>
        <mxCell id="FgK2PDGZxnkYuvgnImA7-36" value="p std::function&amp;lt;void(Data&amp;amp;, const Parameters&amp;lt;parameter_size&amp;gt;&amp;amp;,&lt;br&gt;&lt;span style=&quot;background-color: initial;&quot;&gt;&amp;nbsp; &amp;nbsp; &amp;nbsp; &amp;nbsp; const AdditionalParameters&amp;amp;&lt;/span&gt;)&amp;gt; m_model;" style="text;strokeColor=none;fillColor=none;align=left;verticalAlign=top;spacingLeft=4;spacingRight=4;overflow=hidden;rotatable=0;points=[[0,0.5],[1,0.5]];portConstraint=eastwest;whiteSpace=wrap;html=1;" parent="FgK2PDGZxnkYuvgnImA7-35" vertex="1">
          <mxGeometry y="26" width="420" height="114" as="geometry" />
        </mxCell>
        <mxCell id="FgK2PDGZxnkYuvgnImA7-37" value="" style="line;strokeWidth=1;fillColor=none;align=left;verticalAlign=middle;spacingTop=-1;spacingLeft=3;spacingRight=3;rotatable=0;labelPosition=right;points=[];portConstraint=eastwest;strokeColor=inherit;" parent="FgK2PDGZxnkYuvgnImA7-35" vertex="1">
          <mxGeometry y="140" width="420" height="8" as="geometry" />
        </mxCell>
        <mxCell id="FgK2PDGZxnkYuvgnImA7-38" value="+&amp;nbsp;Data operator()(Data&amp;amp;, const Parameters&amp;lt;parameter_size&amp;gt;&amp;amp;,&lt;div&gt;&amp;nbsp; &amp;nbsp; const AdditionalParameters&amp;amp;) const;&lt;/div&gt;&lt;div&gt;+all default and virtual destructor(def constr is deleted)&lt;/div&gt;" style="text;strokeColor=none;fillColor=none;align=left;verticalAlign=top;spacingLeft=4;spacingRight=4;overflow=hidden;rotatable=0;points=[[0,0.5],[1,0.5]];portConstraint=eastwest;whiteSpace=wrap;html=1;" parent="FgK2PDGZxnkYuvgnImA7-35" vertex="1">
          <mxGeometry y="148" width="420" height="68" as="geometry" />
        </mxCell>
        <mxCell id="FgK2PDGZxnkYuvgnImA7-40" value="ErrorModel" style="swimlane;fontStyle=1;align=center;verticalAlign=top;childLayout=stackLayout;horizontal=1;startSize=26;horizontalStack=0;resizeParent=1;resizeParentMax=0;resizeLast=0;collapsible=1;marginBottom=0;whiteSpace=wrap;html=1;" parent="1" vertex="1">
          <mxGeometry x="1240" y="2110" width="350" height="150" as="geometry" />
        </mxCell>
        <mxCell id="FgK2PDGZxnkYuvgnImA7-41" value="p std::function&amp;lt;double(const Data&amp;amp;,const Data&amp;amp;)&amp;gt; m_model;" style="text;strokeColor=none;fillColor=none;align=left;verticalAlign=top;spacingLeft=4;spacingRight=4;overflow=hidden;rotatable=0;points=[[0,0.5],[1,0.5]];portConstraint=eastwest;whiteSpace=wrap;html=1;" parent="FgK2PDGZxnkYuvgnImA7-40" vertex="1">
          <mxGeometry y="26" width="350" height="54" as="geometry" />
        </mxCell>
        <mxCell id="FgK2PDGZxnkYuvgnImA7-42" value="" style="line;strokeWidth=1;fillColor=none;align=left;verticalAlign=middle;spacingTop=-1;spacingLeft=3;spacingRight=3;rotatable=0;labelPosition=right;points=[];portConstraint=eastwest;strokeColor=inherit;" parent="FgK2PDGZxnkYuvgnImA7-40" vertex="1">
          <mxGeometry y="80" width="350" height="8" as="geometry" />
        </mxCell>
        <mxCell id="FgK2PDGZxnkYuvgnImA7-43" value="+&amp;nbsp;double operator()(const Data&amp;amp;, const Data&amp;amp;) const;&lt;br&gt;+all default and virtual destructor(def constr is deleted)" style="text;strokeColor=none;fillColor=none;align=left;verticalAlign=top;spacingLeft=4;spacingRight=4;overflow=hidden;rotatable=0;points=[[0,0.5],[1,0.5]];portConstraint=eastwest;whiteSpace=wrap;html=1;" parent="FgK2PDGZxnkYuvgnImA7-40" vertex="1">
          <mxGeometry y="88" width="350" height="62" as="geometry" />
        </mxCell>
        <mxCell id="FgK2PDGZxnkYuvgnImA7-51" value="abstract Data" style="swimlane;fontStyle=1;align=center;verticalAlign=top;childLayout=stackLayout;horizontal=1;startSize=26;horizontalStack=0;resizeParent=1;resizeParentMax=0;resizeLast=0;collapsible=1;marginBottom=0;whiteSpace=wrap;html=1;" parent="1" vertex="1">
          <mxGeometry x="725" y="1430" width="360" height="260" as="geometry" />
        </mxCell>
        <mxCell id="FgK2PDGZxnkYuvgnImA7-52" value="p std::vector&amp;lt;double&amp;gt; m_arguments{};&lt;br&gt;p std::vector&amp;lt;double&amp;gt; m_values{};" style="text;strokeColor=none;fillColor=none;align=left;verticalAlign=top;spacingLeft=4;spacingRight=4;overflow=hidden;rotatable=0;points=[[0,0.5],[1,0.5]];portConstraint=eastwest;whiteSpace=wrap;html=1;" parent="FgK2PDGZxnkYuvgnImA7-51" vertex="1">
          <mxGeometry y="26" width="360" height="104" as="geometry" />
        </mxCell>
        <mxCell id="FgK2PDGZxnkYuvgnImA7-53" value="" style="line;strokeWidth=1;fillColor=none;align=left;verticalAlign=middle;spacingTop=-1;spacingLeft=3;spacingRight=3;rotatable=0;labelPosition=right;points=[];portConstraint=eastwest;strokeColor=inherit;" parent="FgK2PDGZxnkYuvgnImA7-51" vertex="1">
          <mxGeometry y="130" width="360" height="8" as="geometry" />
        </mxCell>
        <mxCell id="FgK2PDGZxnkYuvgnImA7-54" value="+ Data() = delete;&lt;br&gt;+ Data(const std::vector&amp;lt;double&amp;gt;&amp;amp; ,const std::vector&amp;lt;double&amp;gt;&amp;amp;);&lt;br&gt;+ virtual ~Data();&lt;br&gt;+ Data(const Data&amp;amp;) = default;&lt;br&gt;+ Data(Data&amp;amp;&amp;amp;) = default;&lt;br&gt;+ virtual const std::vector&amp;lt;double&amp;gt;&amp;amp; getArgumets() = 0;&lt;br&gt;+ virtual const std::vector&amp;lt;double&amp;gt;&amp;amp; getValues() = 0;" style="text;strokeColor=none;fillColor=none;align=left;verticalAlign=top;spacingLeft=4;spacingRight=4;overflow=hidden;rotatable=0;points=[[0,0.5],[1,0.5]];portConstraint=eastwest;whiteSpace=wrap;html=1;" parent="FgK2PDGZxnkYuvgnImA7-51" vertex="1">
          <mxGeometry y="138" width="360" height="122" as="geometry" />
        </mxCell>
        <mxCell id="FgK2PDGZxnkYuvgnImA7-57" value="any type this class is just an abstraction&amp;nbsp;&lt;br&gt;the user needs to define what the data will use, how to calculate error and how to calculate it based on model" style="rounded=0;whiteSpace=wrap;html=1;" parent="1" vertex="1">
          <mxGeometry x="1970" y="48" width="240" height="97" as="geometry" />
        </mxCell>
        <mxCell id="FgK2PDGZxnkYuvgnImA7-59" value="abstract(?) AdditionalParameters" style="swimlane;fontStyle=1;align=center;verticalAlign=top;childLayout=stackLayout;horizontal=1;startSize=26;horizontalStack=0;resizeParent=1;resizeParentMax=0;resizeLast=0;collapsible=1;marginBottom=0;whiteSpace=wrap;html=1;" parent="1" vertex="1">
          <mxGeometry x="1590" y="90" width="220" height="96" as="geometry" />
        </mxCell>
        <mxCell id="FgK2PDGZxnkYuvgnImA7-61" value="" style="line;strokeWidth=1;fillColor=none;align=left;verticalAlign=middle;spacingTop=-1;spacingLeft=3;spacingRight=3;rotatable=0;labelPosition=right;points=[];portConstraint=eastwest;strokeColor=inherit;" parent="FgK2PDGZxnkYuvgnImA7-59" vertex="1">
          <mxGeometry y="26" width="220" height="8" as="geometry" />
        </mxCell>
        <mxCell id="FgK2PDGZxnkYuvgnImA7-62" value="+ AdditonalParameters() = default;&amp;nbsp;&lt;br&gt;+ virtual ~AdditionalParameters() = def;" style="text;strokeColor=none;fillColor=none;align=left;verticalAlign=top;spacingLeft=4;spacingRight=4;overflow=hidden;rotatable=0;points=[[0,0.5],[1,0.5]];portConstraint=eastwest;whiteSpace=wrap;html=1;" parent="FgK2PDGZxnkYuvgnImA7-59" vertex="1">
          <mxGeometry y="34" width="220" height="62" as="geometry" />
        </mxCell>
        <mxCell id="FgK2PDGZxnkYuvgnImA7-64" value="&lt;font style=&quot;font-size: 27px;&quot;&gt;Simmulated Annealing Module&lt;br&gt;&lt;/font&gt;" style="rounded=1;whiteSpace=wrap;html=1;fillColor=#f8cecc;strokeColor=#b85450;" parent="1" vertex="1">
          <mxGeometry x="1780" y="418" width="700" height="60" as="geometry" />
        </mxCell>
        <mxCell id="FgK2PDGZxnkYuvgnImA7-87" style="edgeStyle=orthogonalEdgeStyle;rounded=1;orthogonalLoop=1;jettySize=auto;html=1;endArrow=diamondThin;endFill=1;endSize=11;dashed=1;" parent="1" source="FgK2PDGZxnkYuvgnImA7-65" target="FgK2PDGZxnkYuvgnImA7-76" edge="1">
          <mxGeometry relative="1" as="geometry" />
        </mxCell>
        <mxCell id="FgK2PDGZxnkYuvgnImA7-65" value="abstract AnnealingTechnique" style="swimlane;fontStyle=1;align=center;verticalAlign=top;childLayout=stackLayout;horizontal=1;startSize=26;horizontalStack=0;resizeParent=1;resizeParentMax=0;resizeLast=0;collapsible=1;marginBottom=0;whiteSpace=wrap;html=1;" parent="1" vertex="1">
          <mxGeometry x="2058" y="758" width="470" height="104" as="geometry" />
        </mxCell>
        <mxCell id="FgK2PDGZxnkYuvgnImA7-66" value="- std::vector&amp;lt;Parameters&amp;gt; annealedePoints&lt;br&gt;- ModelTemperatureDecreacing modelOfTemperature" style="text;strokeColor=none;fillColor=none;align=left;verticalAlign=top;spacingLeft=4;spacingRight=4;overflow=hidden;rotatable=0;points=[[0,0.5],[1,0.5]];portConstraint=eastwest;whiteSpace=wrap;html=1;" parent="FgK2PDGZxnkYuvgnImA7-65" vertex="1">
          <mxGeometry y="26" width="470" height="44" as="geometry" />
        </mxCell>
        <mxCell id="FgK2PDGZxnkYuvgnImA7-67" value="" style="line;strokeWidth=1;fillColor=none;align=left;verticalAlign=middle;spacingTop=-1;spacingLeft=3;spacingRight=3;rotatable=0;labelPosition=right;points=[];portConstraint=eastwest;strokeColor=inherit;" parent="FgK2PDGZxnkYuvgnImA7-65" vertex="1">
          <mxGeometry y="70" width="470" height="8" as="geometry" />
        </mxCell>
        <mxCell id="FgK2PDGZxnkYuvgnImA7-68" value="+ generatePoints(ParametersToAnnealing parameters): std::vector&amp;lt;Parameters&amp;gt;" style="text;strokeColor=none;fillColor=none;align=left;verticalAlign=top;spacingLeft=4;spacingRight=4;overflow=hidden;rotatable=0;points=[[0,0.5],[1,0.5]];portConstraint=eastwest;whiteSpace=wrap;html=1;" parent="FgK2PDGZxnkYuvgnImA7-65" vertex="1">
          <mxGeometry y="78" width="470" height="26" as="geometry" />
        </mxCell>
        <mxCell id="FgK2PDGZxnkYuvgnImA7-80" style="edgeStyle=orthogonalEdgeStyle;rounded=1;orthogonalLoop=1;jettySize=auto;html=1;entryX=1;entryY=0.5;entryDx=0;entryDy=0;endArrow=diamondThin;endFill=1;endSize=12;" parent="1" source="FgK2PDGZxnkYuvgnImA7-69" target="FgK2PDGZxnkYuvgnImA7-79" edge="1">
          <mxGeometry relative="1" as="geometry" />
        </mxCell>
        <mxCell id="FgK2PDGZxnkYuvgnImA7-69" value="abstrac Parameters" style="swimlane;fontStyle=1;align=center;verticalAlign=top;childLayout=stackLayout;horizontal=1;startSize=26;horizontalStack=0;resizeParent=1;resizeParentMax=0;resizeLast=0;collapsible=1;marginBottom=0;whiteSpace=wrap;html=1;" parent="1" vertex="1">
          <mxGeometry x="2740" y="464" width="280" height="178" as="geometry" />
        </mxCell>
        <mxCell id="FgK2PDGZxnkYuvgnImA7-70" value="- std::array&amp;lt;double,size_p&amp;gt; m_parameters&lt;br&gt;- double m_error" style="text;strokeColor=none;fillColor=none;align=left;verticalAlign=top;spacingLeft=4;spacingRight=4;overflow=hidden;rotatable=0;points=[[0,0.5],[1,0.5]];portConstraint=eastwest;whiteSpace=wrap;html=1;" parent="FgK2PDGZxnkYuvgnImA7-69" vertex="1">
          <mxGeometry y="26" width="280" height="34" as="geometry" />
        </mxCell>
        <mxCell id="FgK2PDGZxnkYuvgnImA7-71" value="" style="line;strokeWidth=1;fillColor=none;align=left;verticalAlign=middle;spacingTop=-1;spacingLeft=3;spacingRight=3;rotatable=0;labelPosition=right;points=[];portConstraint=eastwest;strokeColor=inherit;" parent="FgK2PDGZxnkYuvgnImA7-69" vertex="1">
          <mxGeometry y="60" width="280" height="8" as="geometry" />
        </mxCell>
        <mxCell id="FgK2PDGZxnkYuvgnImA7-72" value="+ double&amp;amp; operator []&amp;nbsp;&lt;br&gt;+ getParameters() : std::array&amp;lt;double,size_p&amp;gt;&lt;br&gt;+ setParameters(int index) : void&lt;br&gt;+ double getError()&lt;br&gt;+ calculateError(): double" style="text;strokeColor=none;fillColor=none;align=left;verticalAlign=top;spacingLeft=4;spacingRight=4;overflow=hidden;rotatable=0;points=[[0,0.5],[1,0.5]];portConstraint=eastwest;whiteSpace=wrap;html=1;" parent="FgK2PDGZxnkYuvgnImA7-69" vertex="1">
          <mxGeometry y="68" width="280" height="110" as="geometry" />
        </mxCell>
        <mxCell id="FgK2PDGZxnkYuvgnImA7-73" value="" style="edgeStyle=orthogonalEdgeStyle;rounded=1;orthogonalLoop=1;jettySize=auto;html=1;endSize=12;endArrow=diamondThin;endFill=1;" parent="1" source="FgK2PDGZxnkYuvgnImA7-72" target="FgK2PDGZxnkYuvgnImA7-68" edge="1">
          <mxGeometry relative="1" as="geometry" />
        </mxCell>
        <mxCell id="FgK2PDGZxnkYuvgnImA7-75" value="" style="edgeStyle=orthogonalEdgeStyle;rounded=1;orthogonalLoop=1;jettySize=auto;html=1;" parent="1" source="FgK2PDGZxnkYuvgnImA7-74" target="FgK2PDGZxnkYuvgnImA7-72" edge="1">
          <mxGeometry relative="1" as="geometry" />
        </mxCell>
        <mxCell id="FgK2PDGZxnkYuvgnImA7-74" value="in production code it will be different class than parameters in simplex module, but in reality it will be the same object" style="rounded=0;whiteSpace=wrap;html=1;" parent="1" vertex="1">
          <mxGeometry x="3100" y="524" width="150" height="86" as="geometry" />
        </mxCell>
        <mxCell id="FgK2PDGZxnkYuvgnImA7-76" value="AnnaelingFactory" style="swimlane;fontStyle=1;align=center;verticalAlign=top;childLayout=stackLayout;horizontal=1;startSize=26;horizontalStack=0;resizeParent=1;resizeParentMax=0;resizeLast=0;collapsible=1;marginBottom=0;whiteSpace=wrap;html=1;" parent="1" vertex="1">
          <mxGeometry x="1750" y="524" width="600" height="170" as="geometry" />
        </mxCell>
        <mxCell id="FgK2PDGZxnkYuvgnImA7-77" value="- std::map&amp;lt;string,AnnaelingTechinque&amp;gt; annaelingTechniques" style="text;strokeColor=none;fillColor=none;align=left;verticalAlign=top;spacingLeft=4;spacingRight=4;overflow=hidden;rotatable=0;points=[[0,0.5],[1,0.5]];portConstraint=eastwest;whiteSpace=wrap;html=1;" parent="FgK2PDGZxnkYuvgnImA7-76" vertex="1">
          <mxGeometry y="26" width="600" height="26" as="geometry" />
        </mxCell>
        <mxCell id="FgK2PDGZxnkYuvgnImA7-78" value="" style="line;strokeWidth=1;fillColor=none;align=left;verticalAlign=middle;spacingTop=-1;spacingLeft=3;spacingRight=3;rotatable=0;labelPosition=right;points=[];portConstraint=eastwest;strokeColor=inherit;" parent="FgK2PDGZxnkYuvgnImA7-76" vertex="1">
          <mxGeometry y="52" width="600" height="8" as="geometry" />
        </mxCell>
        <mxCell id="FgK2PDGZxnkYuvgnImA7-79" value="+ registerTechnique(std::string name,AnnaelingTechnique technique)&lt;br&gt;+ unRegisterTechnique(std::string name,AnnaelingTechnique technique)&lt;br&gt;+ createAnnaeledPoints (std::string name,ParametersToAnnaeling parameters ): std::vector&amp;lt;Parameters&amp;gt;&amp;nbsp;&lt;br style=&quot;border-color: var(--border-color);&quot;&gt;&amp;nbsp;" style="text;strokeColor=none;fillColor=none;align=left;verticalAlign=top;spacingLeft=4;spacingRight=4;overflow=hidden;rotatable=0;points=[[0,0.5],[1,0.5]];portConstraint=eastwest;whiteSpace=wrap;html=1;" parent="FgK2PDGZxnkYuvgnImA7-76" vertex="1">
          <mxGeometry y="60" width="600" height="110" as="geometry" />
        </mxCell>
        <mxCell id="FgK2PDGZxnkYuvgnImA7-85" style="edgeStyle=orthogonalEdgeStyle;rounded=1;orthogonalLoop=1;jettySize=auto;html=1;entryX=1;entryY=0.5;entryDx=0;entryDy=0;endArrow=diamondThin;endFill=1;endSize=12;exitX=0.496;exitY=0.969;exitDx=0;exitDy=0;exitPerimeter=0;" parent="1" source="FgK2PDGZxnkYuvgnImA7-84" target="FgK2PDGZxnkYuvgnImA7-68" edge="1">
          <mxGeometry relative="1" as="geometry">
            <Array as="points">
              <mxPoint x="2839" y="850" />
              <mxPoint x="2830" y="850" />
            </Array>
          </mxGeometry>
        </mxCell>
        <mxCell id="FgK2PDGZxnkYuvgnImA7-81" value="abstrac ParametersToAnnaeling" style="swimlane;fontStyle=1;align=center;verticalAlign=top;childLayout=stackLayout;horizontal=1;startSize=26;horizontalStack=0;resizeParent=1;resizeParentMax=0;resizeLast=0;collapsible=1;marginBottom=0;whiteSpace=wrap;html=1;" parent="1" vertex="1">
          <mxGeometry x="2700" y="668" width="280" height="100" as="geometry" />
        </mxCell>
        <mxCell id="FgK2PDGZxnkYuvgnImA7-82" value="-&amp;nbsp;" style="text;strokeColor=none;fillColor=none;align=left;verticalAlign=top;spacingLeft=4;spacingRight=4;overflow=hidden;rotatable=0;points=[[0,0.5],[1,0.5]];portConstraint=eastwest;whiteSpace=wrap;html=1;" parent="FgK2PDGZxnkYuvgnImA7-81" vertex="1">
          <mxGeometry y="26" width="280" height="34" as="geometry" />
        </mxCell>
        <mxCell id="FgK2PDGZxnkYuvgnImA7-83" value="" style="line;strokeWidth=1;fillColor=none;align=left;verticalAlign=middle;spacingTop=-1;spacingLeft=3;spacingRight=3;rotatable=0;labelPosition=right;points=[];portConstraint=eastwest;strokeColor=inherit;" parent="FgK2PDGZxnkYuvgnImA7-81" vertex="1">
          <mxGeometry y="60" width="280" height="8" as="geometry" />
        </mxCell>
        <mxCell id="FgK2PDGZxnkYuvgnImA7-84" value="-" style="text;strokeColor=none;fillColor=none;align=left;verticalAlign=top;spacingLeft=4;spacingRight=4;overflow=hidden;rotatable=0;points=[[0,0.5],[1,0.5]];portConstraint=eastwest;whiteSpace=wrap;html=1;" parent="FgK2PDGZxnkYuvgnImA7-81" vertex="1">
          <mxGeometry y="68" width="280" height="32" as="geometry" />
        </mxCell>
        <mxCell id="FgK2PDGZxnkYuvgnImA7-92" style="edgeStyle=orthogonalEdgeStyle;rounded=1;orthogonalLoop=1;jettySize=auto;html=1;dashed=1;" parent="1" source="FgK2PDGZxnkYuvgnImA7-88" target="FgK2PDGZxnkYuvgnImA7-65" edge="1">
          <mxGeometry relative="1" as="geometry">
            <mxPoint x="2300" y="888" as="targetPoint" />
            <Array as="points">
              <mxPoint x="2180" y="898" />
              <mxPoint x="2293" y="898" />
            </Array>
          </mxGeometry>
        </mxCell>
        <mxCell id="FgK2PDGZxnkYuvgnImA7-88" value="GradientH" style="swimlane;fontStyle=1;align=center;verticalAlign=top;childLayout=stackLayout;horizontal=1;startSize=26;horizontalStack=0;resizeParent=1;resizeParentMax=0;resizeLast=0;collapsible=1;marginBottom=0;whiteSpace=wrap;html=1;" parent="1" vertex="1">
          <mxGeometry x="2090" y="938" width="170" height="86" as="geometry" />
        </mxCell>
        <mxCell id="FgK2PDGZxnkYuvgnImA7-89" value="-" style="text;strokeColor=none;fillColor=none;align=left;verticalAlign=top;spacingLeft=4;spacingRight=4;overflow=hidden;rotatable=0;points=[[0,0.5],[1,0.5]];portConstraint=eastwest;whiteSpace=wrap;html=1;" parent="FgK2PDGZxnkYuvgnImA7-88" vertex="1">
          <mxGeometry y="26" width="170" height="26" as="geometry" />
        </mxCell>
        <mxCell id="FgK2PDGZxnkYuvgnImA7-90" value="" style="line;strokeWidth=1;fillColor=none;align=left;verticalAlign=middle;spacingTop=-1;spacingLeft=3;spacingRight=3;rotatable=0;labelPosition=right;points=[];portConstraint=eastwest;strokeColor=inherit;" parent="FgK2PDGZxnkYuvgnImA7-88" vertex="1">
          <mxGeometry y="52" width="170" height="8" as="geometry" />
        </mxCell>
        <mxCell id="FgK2PDGZxnkYuvgnImA7-91" value="-" style="text;strokeColor=none;fillColor=none;align=left;verticalAlign=top;spacingLeft=4;spacingRight=4;overflow=hidden;rotatable=0;points=[[0,0.5],[1,0.5]];portConstraint=eastwest;whiteSpace=wrap;html=1;" parent="FgK2PDGZxnkYuvgnImA7-88" vertex="1">
          <mxGeometry y="60" width="170" height="26" as="geometry" />
        </mxCell>
        <mxCell id="FgK2PDGZxnkYuvgnImA7-97" value="" style="edgeStyle=orthogonalEdgeStyle;rounded=1;orthogonalLoop=1;jettySize=auto;html=1;dashed=1;" parent="1" source="FgK2PDGZxnkYuvgnImA7-93" target="FgK2PDGZxnkYuvgnImA7-68" edge="1">
          <mxGeometry relative="1" as="geometry">
            <Array as="points">
              <mxPoint x="2430" y="898" />
              <mxPoint x="2293" y="898" />
            </Array>
          </mxGeometry>
        </mxCell>
        <mxCell id="FgK2PDGZxnkYuvgnImA7-93" value="GradientG" style="swimlane;fontStyle=1;align=center;verticalAlign=top;childLayout=stackLayout;horizontal=1;startSize=26;horizontalStack=0;resizeParent=1;resizeParentMax=0;resizeLast=0;collapsible=1;marginBottom=0;whiteSpace=wrap;html=1;" parent="1" vertex="1">
          <mxGeometry x="2360" y="938" width="140" height="86" as="geometry" />
        </mxCell>
        <mxCell id="FgK2PDGZxnkYuvgnImA7-94" value="-" style="text;strokeColor=none;fillColor=none;align=left;verticalAlign=top;spacingLeft=4;spacingRight=4;overflow=hidden;rotatable=0;points=[[0,0.5],[1,0.5]];portConstraint=eastwest;whiteSpace=wrap;html=1;" parent="FgK2PDGZxnkYuvgnImA7-93" vertex="1">
          <mxGeometry y="26" width="140" height="26" as="geometry" />
        </mxCell>
        <mxCell id="FgK2PDGZxnkYuvgnImA7-95" value="" style="line;strokeWidth=1;fillColor=none;align=left;verticalAlign=middle;spacingTop=-1;spacingLeft=3;spacingRight=3;rotatable=0;labelPosition=right;points=[];portConstraint=eastwest;strokeColor=inherit;" parent="FgK2PDGZxnkYuvgnImA7-93" vertex="1">
          <mxGeometry y="52" width="140" height="8" as="geometry" />
        </mxCell>
        <mxCell id="FgK2PDGZxnkYuvgnImA7-96" value="-" style="text;strokeColor=none;fillColor=none;align=left;verticalAlign=top;spacingLeft=4;spacingRight=4;overflow=hidden;rotatable=0;points=[[0,0.5],[1,0.5]];portConstraint=eastwest;whiteSpace=wrap;html=1;" parent="FgK2PDGZxnkYuvgnImA7-93" vertex="1">
          <mxGeometry y="60" width="140" height="26" as="geometry" />
        </mxCell>
        <mxCell id="FgK2PDGZxnkYuvgnImA7-98" value="DepthSimplexFitter" style="swimlane;fontStyle=1;align=center;verticalAlign=top;childLayout=stackLayout;horizontal=1;startSize=26;horizontalStack=0;resizeParent=1;resizeParentMax=0;resizeLast=0;collapsible=1;marginBottom=0;whiteSpace=wrap;html=1;" parent="1" vertex="1">
          <mxGeometry x="160" y="710" width="490" height="260" as="geometry" />
        </mxCell>
        <mxCell id="FgK2PDGZxnkYuvgnImA7-99" value="-&amp;nbsp;" style="text;strokeColor=none;fillColor=none;align=left;verticalAlign=top;spacingLeft=4;spacingRight=4;overflow=hidden;rotatable=0;points=[[0,0.5],[1,0.5]];portConstraint=eastwest;whiteSpace=wrap;html=1;" parent="FgK2PDGZxnkYuvgnImA7-98" vertex="1">
          <mxGeometry y="26" width="490" height="26" as="geometry" />
        </mxCell>
        <mxCell id="FgK2PDGZxnkYuvgnImA7-100" value="" style="line;strokeWidth=1;fillColor=none;align=left;verticalAlign=middle;spacingTop=-1;spacingLeft=3;spacingRight=3;rotatable=0;labelPosition=right;points=[];portConstraint=eastwest;strokeColor=inherit;" parent="FgK2PDGZxnkYuvgnImA7-98" vertex="1">
          <mxGeometry y="52" width="490" height="8" as="geometry" />
        </mxCell>
        <mxCell id="FgK2PDGZxnkYuvgnImA7-101" value="+ BasicSimplexFitter(SimplexFigure figure)&lt;br&gt;- decidePointToContraction(SimplexFigure simplexFigure,Parametersreflected): Parameters&lt;br&gt;&lt;br&gt;- decideOperation(SimplexFigure simplexFigure,&lt;br&gt;[Parameter],reflectedPoint,expandedPoint,contractedPoint): string&lt;br&gt;&lt;br&gt;- doOperation(SimplexFigure simplexFigure, [Parameter] reflected,expanded,contracted,[shrinked])" style="text;strokeColor=none;fillColor=none;align=left;verticalAlign=top;spacingLeft=4;spacingRight=4;overflow=hidden;rotatable=0;points=[[0,0.5],[1,0.5]];portConstraint=eastwest;whiteSpace=wrap;html=1;" parent="FgK2PDGZxnkYuvgnImA7-98" vertex="1">
          <mxGeometry y="60" width="490" height="200" as="geometry" />
        </mxCell>
        <mxCell id="zNB6hBDcjk5UrMVVQGbG-5" value="" style="edgeStyle=orthogonalEdgeStyle;rounded=1;orthogonalLoop=1;jettySize=auto;html=1;endArrow=diamondThin;endFill=1;endSize=12;entryX=1;entryY=0.5;entryDx=0;entryDy=0;" parent="1" source="zNB6hBDcjk5UrMVVQGbG-1" target="FgK2PDGZxnkYuvgnImA7-66" edge="1">
          <mxGeometry relative="1" as="geometry" />
        </mxCell>
        <mxCell id="zNB6hBDcjk5UrMVVQGbG-1" value="abstract TemperatureDecreasign" style="swimlane;fontStyle=1;align=center;verticalAlign=top;childLayout=stackLayout;horizontal=1;startSize=26;horizontalStack=0;resizeParent=1;resizeParentMax=0;resizeLast=0;collapsible=1;marginBottom=0;whiteSpace=wrap;html=1;" parent="1" vertex="1">
          <mxGeometry x="3060" y="668" width="280" height="100" as="geometry" />
        </mxCell>
        <mxCell id="zNB6hBDcjk5UrMVVQGbG-2" value="-&amp;nbsp;" style="text;strokeColor=none;fillColor=none;align=left;verticalAlign=top;spacingLeft=4;spacingRight=4;overflow=hidden;rotatable=0;points=[[0,0.5],[1,0.5]];portConstraint=eastwest;whiteSpace=wrap;html=1;" parent="zNB6hBDcjk5UrMVVQGbG-1" vertex="1">
          <mxGeometry y="26" width="280" height="34" as="geometry" />
        </mxCell>
        <mxCell id="zNB6hBDcjk5UrMVVQGbG-3" value="" style="line;strokeWidth=1;fillColor=none;align=left;verticalAlign=middle;spacingTop=-1;spacingLeft=3;spacingRight=3;rotatable=0;labelPosition=right;points=[];portConstraint=eastwest;strokeColor=inherit;" parent="zNB6hBDcjk5UrMVVQGbG-1" vertex="1">
          <mxGeometry y="60" width="280" height="8" as="geometry" />
        </mxCell>
        <mxCell id="zNB6hBDcjk5UrMVVQGbG-4" value="+ abstract updateTemperature()" style="text;strokeColor=none;fillColor=none;align=left;verticalAlign=top;spacingLeft=4;spacingRight=4;overflow=hidden;rotatable=0;points=[[0,0.5],[1,0.5]];portConstraint=eastwest;whiteSpace=wrap;html=1;" parent="zNB6hBDcjk5UrMVVQGbG-1" vertex="1">
          <mxGeometry y="68" width="280" height="32" as="geometry" />
        </mxCell>
        <mxCell id="zNB6hBDcjk5UrMVVQGbG-13" value="&amp;lt;&amp;lt;interface&amp;gt;&amp;gt;&lt;br&gt;&lt;i&gt;ISimplexOperation&amp;lt;SimplexFIgure, SimplexFigure, SimplexOperationSettings&amp;gt;&lt;/i&gt;" style="swimlane;fontStyle=1;align=center;verticalAlign=top;childLayout=stackLayout;horizontal=1;startSize=50;horizontalStack=0;resizeParent=1;resizeParentMax=0;resizeLast=0;collapsible=1;marginBottom=0;whiteSpace=wrap;html=1;" parent="1" vertex="1">
          <mxGeometry x="-1780" y="1706" width="490" height="120" as="geometry" />
        </mxCell>
        <mxCell id="zNB6hBDcjk5UrMVVQGbG-14" value="-&amp;nbsp;std::string m_operationName;" style="text;strokeColor=none;fillColor=none;align=left;verticalAlign=top;spacingLeft=4;spacingRight=4;overflow=hidden;rotatable=0;points=[[0,0.5],[1,0.5]];portConstraint=eastwest;whiteSpace=wrap;html=1;" parent="zNB6hBDcjk5UrMVVQGbG-13" vertex="1">
          <mxGeometry y="50" width="490" height="30" as="geometry" />
        </mxCell>
        <mxCell id="zNB6hBDcjk5UrMVVQGbG-15" value="" style="line;strokeWidth=1;fillColor=none;align=left;verticalAlign=middle;spacingTop=-1;spacingLeft=3;spacingRight=3;rotatable=0;labelPosition=right;points=[];portConstraint=eastwest;strokeColor=inherit;" parent="zNB6hBDcjk5UrMVVQGbG-13" vertex="1">
          <mxGeometry y="80" width="490" height="8" as="geometry" />
        </mxCell>
        <mxCell id="zNB6hBDcjk5UrMVVQGbG-16" value="+&amp;nbsp;const std::string&amp;amp; getOpeartionName() const;" style="text;strokeColor=none;fillColor=none;align=left;verticalAlign=top;spacingLeft=4;spacingRight=4;overflow=hidden;rotatable=0;points=[[0,0.5],[1,0.5]];portConstraint=eastwest;whiteSpace=wrap;html=1;" parent="zNB6hBDcjk5UrMVVQGbG-13" vertex="1">
          <mxGeometry y="88" width="490" height="32" as="geometry" />
        </mxCell>
        <mxCell id="zNB6hBDcjk5UrMVVQGbG-18" value="SimplexOperationSettings" style="swimlane;fontStyle=1;align=center;verticalAlign=top;childLayout=stackLayout;horizontal=1;startSize=26;horizontalStack=0;resizeParent=1;resizeParentMax=0;resizeLast=0;collapsible=1;marginBottom=0;whiteSpace=wrap;html=1;" parent="1" vertex="1">
          <mxGeometry x="-2080" y="1734" width="200" height="86" as="geometry" />
        </mxCell>
        <mxCell id="zNB6hBDcjk5UrMVVQGbG-19" value="- double m_factor" style="text;strokeColor=none;fillColor=none;align=left;verticalAlign=top;spacingLeft=4;spacingRight=4;overflow=hidden;rotatable=0;points=[[0,0.5],[1,0.5]];portConstraint=eastwest;whiteSpace=wrap;html=1;" parent="zNB6hBDcjk5UrMVVQGbG-18" vertex="1">
          <mxGeometry y="26" width="200" height="26" as="geometry" />
        </mxCell>
        <mxCell id="zNB6hBDcjk5UrMVVQGbG-20" value="" style="line;strokeWidth=1;fillColor=none;align=left;verticalAlign=middle;spacingTop=-1;spacingLeft=3;spacingRight=3;rotatable=0;labelPosition=right;points=[];portConstraint=eastwest;strokeColor=inherit;" parent="zNB6hBDcjk5UrMVVQGbG-18" vertex="1">
          <mxGeometry y="52" width="200" height="8" as="geometry" />
        </mxCell>
        <mxCell id="zNB6hBDcjk5UrMVVQGbG-21" value="+ double getFactor();" style="text;strokeColor=none;fillColor=none;align=left;verticalAlign=top;spacingLeft=4;spacingRight=4;overflow=hidden;rotatable=0;points=[[0,0.5],[1,0.5]];portConstraint=eastwest;whiteSpace=wrap;html=1;" parent="zNB6hBDcjk5UrMVVQGbG-18" vertex="1">
          <mxGeometry y="60" width="200" height="26" as="geometry" />
        </mxCell>
        <mxCell id="zNB6hBDcjk5UrMVVQGbG-26" value="SimplexOperationFactory extends Factory&amp;lt;ISimplexOperation&amp;gt;" style="swimlane;fontStyle=1;align=center;verticalAlign=top;childLayout=stackLayout;horizontal=1;startSize=40;horizontalStack=0;resizeParent=1;resizeParentMax=0;resizeLast=0;collapsible=1;marginBottom=0;whiteSpace=wrap;html=1;" parent="1" vertex="1">
          <mxGeometry x="-1030" y="1747" width="430" height="48" as="geometry" />
        </mxCell>
        <mxCell id="zNB6hBDcjk5UrMVVQGbG-28" value="" style="line;strokeWidth=1;fillColor=none;align=left;verticalAlign=middle;spacingTop=-1;spacingLeft=3;spacingRight=3;rotatable=0;labelPosition=right;points=[];portConstraint=eastwest;strokeColor=inherit;" parent="zNB6hBDcjk5UrMVVQGbG-26" vertex="1">
          <mxGeometry y="40" width="430" height="8" as="geometry" />
        </mxCell>
        <mxCell id="zNB6hBDcjk5UrMVVQGbG-31" value="Reflection" style="swimlane;fontStyle=1;align=center;verticalAlign=top;childLayout=stackLayout;horizontal=1;startSize=26;horizontalStack=0;resizeParent=1;resizeParentMax=0;resizeLast=0;collapsible=1;marginBottom=0;whiteSpace=wrap;html=1;" parent="1" vertex="1">
          <mxGeometry x="-1965" y="2066" width="200" height="86" as="geometry" />
        </mxCell>
        <mxCell id="zNB6hBDcjk5UrMVVQGbG-32" value="-" style="text;strokeColor=none;fillColor=none;align=left;verticalAlign=top;spacingLeft=4;spacingRight=4;overflow=hidden;rotatable=0;points=[[0,0.5],[1,0.5]];portConstraint=eastwest;whiteSpace=wrap;html=1;" parent="zNB6hBDcjk5UrMVVQGbG-31" vertex="1">
          <mxGeometry y="26" width="200" height="26" as="geometry" />
        </mxCell>
        <mxCell id="zNB6hBDcjk5UrMVVQGbG-33" value="" style="line;strokeWidth=1;fillColor=none;align=left;verticalAlign=middle;spacingTop=-1;spacingLeft=3;spacingRight=3;rotatable=0;labelPosition=right;points=[];portConstraint=eastwest;strokeColor=inherit;" parent="zNB6hBDcjk5UrMVVQGbG-31" vertex="1">
          <mxGeometry y="52" width="200" height="8" as="geometry" />
        </mxCell>
        <mxCell id="zNB6hBDcjk5UrMVVQGbG-34" value="-" style="text;strokeColor=none;fillColor=none;align=left;verticalAlign=top;spacingLeft=4;spacingRight=4;overflow=hidden;rotatable=0;points=[[0,0.5],[1,0.5]];portConstraint=eastwest;whiteSpace=wrap;html=1;" parent="zNB6hBDcjk5UrMVVQGbG-31" vertex="1">
          <mxGeometry y="60" width="200" height="26" as="geometry" />
        </mxCell>
        <mxCell id="zNB6hBDcjk5UrMVVQGbG-35" value="Expantion" style="swimlane;fontStyle=1;align=center;verticalAlign=top;childLayout=stackLayout;horizontal=1;startSize=26;horizontalStack=0;resizeParent=1;resizeParentMax=0;resizeLast=0;collapsible=1;marginBottom=0;whiteSpace=wrap;html=1;" parent="1" vertex="1">
          <mxGeometry x="-1745" y="2066" width="200" height="86" as="geometry" />
        </mxCell>
        <mxCell id="zNB6hBDcjk5UrMVVQGbG-36" value="-" style="text;strokeColor=none;fillColor=none;align=left;verticalAlign=top;spacingLeft=4;spacingRight=4;overflow=hidden;rotatable=0;points=[[0,0.5],[1,0.5]];portConstraint=eastwest;whiteSpace=wrap;html=1;" parent="zNB6hBDcjk5UrMVVQGbG-35" vertex="1">
          <mxGeometry y="26" width="200" height="26" as="geometry" />
        </mxCell>
        <mxCell id="zNB6hBDcjk5UrMVVQGbG-37" value="" style="line;strokeWidth=1;fillColor=none;align=left;verticalAlign=middle;spacingTop=-1;spacingLeft=3;spacingRight=3;rotatable=0;labelPosition=right;points=[];portConstraint=eastwest;strokeColor=inherit;" parent="zNB6hBDcjk5UrMVVQGbG-35" vertex="1">
          <mxGeometry y="52" width="200" height="8" as="geometry" />
        </mxCell>
        <mxCell id="zNB6hBDcjk5UrMVVQGbG-38" value="-" style="text;strokeColor=none;fillColor=none;align=left;verticalAlign=top;spacingLeft=4;spacingRight=4;overflow=hidden;rotatable=0;points=[[0,0.5],[1,0.5]];portConstraint=eastwest;whiteSpace=wrap;html=1;" parent="zNB6hBDcjk5UrMVVQGbG-35" vertex="1">
          <mxGeometry y="60" width="200" height="26" as="geometry" />
        </mxCell>
        <mxCell id="zNB6hBDcjk5UrMVVQGbG-39" value="Contraction" style="swimlane;fontStyle=1;align=center;verticalAlign=top;childLayout=stackLayout;horizontal=1;startSize=26;horizontalStack=0;resizeParent=1;resizeParentMax=0;resizeLast=0;collapsible=1;marginBottom=0;whiteSpace=wrap;html=1;" parent="1" vertex="1">
          <mxGeometry x="-1520" y="2066" width="200" height="86" as="geometry" />
        </mxCell>
        <mxCell id="zNB6hBDcjk5UrMVVQGbG-40" value="-" style="text;strokeColor=none;fillColor=none;align=left;verticalAlign=top;spacingLeft=4;spacingRight=4;overflow=hidden;rotatable=0;points=[[0,0.5],[1,0.5]];portConstraint=eastwest;whiteSpace=wrap;html=1;" parent="zNB6hBDcjk5UrMVVQGbG-39" vertex="1">
          <mxGeometry y="26" width="200" height="26" as="geometry" />
        </mxCell>
        <mxCell id="zNB6hBDcjk5UrMVVQGbG-41" value="" style="line;strokeWidth=1;fillColor=none;align=left;verticalAlign=middle;spacingTop=-1;spacingLeft=3;spacingRight=3;rotatable=0;labelPosition=right;points=[];portConstraint=eastwest;strokeColor=inherit;" parent="zNB6hBDcjk5UrMVVQGbG-39" vertex="1">
          <mxGeometry y="52" width="200" height="8" as="geometry" />
        </mxCell>
        <mxCell id="zNB6hBDcjk5UrMVVQGbG-42" value="-" style="text;strokeColor=none;fillColor=none;align=left;verticalAlign=top;spacingLeft=4;spacingRight=4;overflow=hidden;rotatable=0;points=[[0,0.5],[1,0.5]];portConstraint=eastwest;whiteSpace=wrap;html=1;" parent="zNB6hBDcjk5UrMVVQGbG-39" vertex="1">
          <mxGeometry y="60" width="200" height="26" as="geometry" />
        </mxCell>
        <mxCell id="zNB6hBDcjk5UrMVVQGbG-43" value="Shirnking" style="swimlane;fontStyle=1;align=center;verticalAlign=top;childLayout=stackLayout;horizontal=1;startSize=26;horizontalStack=0;resizeParent=1;resizeParentMax=0;resizeLast=0;collapsible=1;marginBottom=0;whiteSpace=wrap;html=1;" parent="1" vertex="1">
          <mxGeometry x="-1305" y="2066" width="200" height="86" as="geometry" />
        </mxCell>
        <mxCell id="zNB6hBDcjk5UrMVVQGbG-44" value="-" style="text;strokeColor=none;fillColor=none;align=left;verticalAlign=top;spacingLeft=4;spacingRight=4;overflow=hidden;rotatable=0;points=[[0,0.5],[1,0.5]];portConstraint=eastwest;whiteSpace=wrap;html=1;" parent="zNB6hBDcjk5UrMVVQGbG-43" vertex="1">
          <mxGeometry y="26" width="200" height="26" as="geometry" />
        </mxCell>
        <mxCell id="zNB6hBDcjk5UrMVVQGbG-45" value="" style="line;strokeWidth=1;fillColor=none;align=left;verticalAlign=middle;spacingTop=-1;spacingLeft=3;spacingRight=3;rotatable=0;labelPosition=right;points=[];portConstraint=eastwest;strokeColor=inherit;" parent="zNB6hBDcjk5UrMVVQGbG-43" vertex="1">
          <mxGeometry y="52" width="200" height="8" as="geometry" />
        </mxCell>
        <mxCell id="zNB6hBDcjk5UrMVVQGbG-46" value="-" style="text;strokeColor=none;fillColor=none;align=left;verticalAlign=top;spacingLeft=4;spacingRight=4;overflow=hidden;rotatable=0;points=[[0,0.5],[1,0.5]];portConstraint=eastwest;whiteSpace=wrap;html=1;" parent="zNB6hBDcjk5UrMVVQGbG-43" vertex="1">
          <mxGeometry y="60" width="200" height="26" as="geometry" />
        </mxCell>
        <mxCell id="oZ9vA0OR--6r7NKtld0--16" value="" style="edgeStyle=orthogonalEdgeStyle;rounded=1;orthogonalLoop=1;jettySize=auto;html=1;endArrow=diamondThin;endFill=1;endSize=12;" parent="1" source="oZ9vA0OR--6r7NKtld0--3" target="oZ9vA0OR--6r7NKtld0--13" edge="1">
          <mxGeometry relative="1" as="geometry" />
        </mxCell>
        <mxCell id="oZ9vA0OR--6r7NKtld0--3" value="&amp;lt;&amp;lt;interface&amp;gt;&amp;gt;&lt;br&gt;&lt;i&gt;ISimplexCreator&lt;/i&gt;" style="swimlane;fontStyle=1;align=center;verticalAlign=top;childLayout=stackLayout;horizontal=1;startSize=50;horizontalStack=0;resizeParent=1;resizeParentMax=0;resizeLast=0;collapsible=1;marginBottom=0;whiteSpace=wrap;html=1;" parent="1" vertex="1">
          <mxGeometry x="827" y="472" width="430" height="124" as="geometry" />
        </mxCell>
        <mxCell id="oZ9vA0OR--6r7NKtld0--4" value="- string m_operationName&lt;br&gt;-&amp;nbsp;SimplexCreatorSettings m_settings" style="text;strokeColor=none;fillColor=none;align=left;verticalAlign=top;spacingLeft=4;spacingRight=4;overflow=hidden;rotatable=0;points=[[0,0.5],[1,0.5]];portConstraint=eastwest;whiteSpace=wrap;html=1;" parent="oZ9vA0OR--6r7NKtld0--3" vertex="1">
          <mxGeometry y="50" width="430" height="40" as="geometry" />
        </mxCell>
        <mxCell id="oZ9vA0OR--6r7NKtld0--5" value="" style="line;strokeWidth=1;fillColor=none;align=left;verticalAlign=middle;spacingTop=-1;spacingLeft=3;spacingRight=3;rotatable=0;labelPosition=right;points=[];portConstraint=eastwest;strokeColor=inherit;" parent="oZ9vA0OR--6r7NKtld0--3" vertex="1">
          <mxGeometry y="90" width="430" height="8" as="geometry" />
        </mxCell>
        <mxCell id="oZ9vA0OR--6r7NKtld0--6" value="+ abstract ()(SimplexCreatorSettings&amp;nbsp;settigns) : SimplexFigure" style="text;strokeColor=none;fillColor=none;align=left;verticalAlign=top;spacingLeft=4;spacingRight=4;overflow=hidden;rotatable=0;points=[[0,0.5],[1,0.5]];portConstraint=eastwest;whiteSpace=wrap;html=1;" parent="oZ9vA0OR--6r7NKtld0--3" vertex="1">
          <mxGeometry y="98" width="430" height="26" as="geometry" />
        </mxCell>
        <mxCell id="oZ9vA0OR--6r7NKtld0--17" value="" style="edgeStyle=orthogonalEdgeStyle;rounded=1;orthogonalLoop=1;jettySize=auto;html=1;endArrow=diamondThin;endFill=0;endSize=12;" parent="1" source="oZ9vA0OR--6r7NKtld0--7" target="oZ9vA0OR--6r7NKtld0--6" edge="1">
          <mxGeometry relative="1" as="geometry">
            <Array as="points">
              <mxPoint x="970" y="610" />
              <mxPoint x="770" y="610" />
              <mxPoint x="770" y="575" />
            </Array>
          </mxGeometry>
        </mxCell>
        <mxCell id="oZ9vA0OR--6r7NKtld0--18" style="edgeStyle=orthogonalEdgeStyle;rounded=1;orthogonalLoop=1;jettySize=auto;html=1;entryX=1;entryY=0.5;entryDx=0;entryDy=0;endArrow=diamondThin;endFill=0;endSize=12;" parent="1" source="oZ9vA0OR--6r7NKtld0--7" target="oZ9vA0OR--6r7NKtld0--14" edge="1">
          <mxGeometry relative="1" as="geometry">
            <Array as="points">
              <mxPoint x="970" y="610" />
              <mxPoint x="770" y="610" />
              <mxPoint x="770" y="597" />
            </Array>
          </mxGeometry>
        </mxCell>
        <mxCell id="oZ9vA0OR--6r7NKtld0--7" value="SimplexCreatorSettings" style="swimlane;fontStyle=1;align=center;verticalAlign=top;childLayout=stackLayout;horizontal=1;startSize=26;horizontalStack=0;resizeParent=1;resizeParentMax=0;resizeLast=0;collapsible=1;marginBottom=0;whiteSpace=wrap;html=1;" parent="1" vertex="1">
          <mxGeometry x="870" y="646" width="200" height="86" as="geometry" />
        </mxCell>
        <mxCell id="oZ9vA0OR--6r7NKtld0--8" value="- std::string m_name" style="text;strokeColor=none;fillColor=none;align=left;verticalAlign=top;spacingLeft=4;spacingRight=4;overflow=hidden;rotatable=0;points=[[0,0.5],[1,0.5]];portConstraint=eastwest;whiteSpace=wrap;html=1;" parent="oZ9vA0OR--6r7NKtld0--7" vertex="1">
          <mxGeometry y="26" width="200" height="26" as="geometry" />
        </mxCell>
        <mxCell id="oZ9vA0OR--6r7NKtld0--9" value="" style="line;strokeWidth=1;fillColor=none;align=left;verticalAlign=middle;spacingTop=-1;spacingLeft=3;spacingRight=3;rotatable=0;labelPosition=right;points=[];portConstraint=eastwest;strokeColor=inherit;" parent="oZ9vA0OR--6r7NKtld0--7" vertex="1">
          <mxGeometry y="52" width="200" height="8" as="geometry" />
        </mxCell>
        <mxCell id="oZ9vA0OR--6r7NKtld0--10" value="+ getname(): std::string" style="text;strokeColor=none;fillColor=none;align=left;verticalAlign=top;spacingLeft=4;spacingRight=4;overflow=hidden;rotatable=0;points=[[0,0.5],[1,0.5]];portConstraint=eastwest;whiteSpace=wrap;html=1;" parent="oZ9vA0OR--6r7NKtld0--7" vertex="1">
          <mxGeometry y="60" width="200" height="26" as="geometry" />
        </mxCell>
        <mxCell id="oZ9vA0OR--6r7NKtld0--11" value="SimplexCreatorFactory" style="swimlane;fontStyle=1;align=center;verticalAlign=top;childLayout=stackLayout;horizontal=1;startSize=40;horizontalStack=0;resizeParent=1;resizeParentMax=0;resizeLast=0;collapsible=1;marginBottom=0;whiteSpace=wrap;html=1;" parent="1" vertex="1">
          <mxGeometry x="260" y="478" width="470" height="150" as="geometry" />
        </mxCell>
        <mxCell id="oZ9vA0OR--6r7NKtld0--12" value="- unsorted_map&amp;lt;string,ISimplexCreator&amp;gt; m_listOfOperations" style="text;strokeColor=none;fillColor=none;align=left;verticalAlign=top;spacingLeft=4;spacingRight=4;overflow=hidden;rotatable=0;points=[[0,0.5],[1,0.5]];portConstraint=eastwest;whiteSpace=wrap;html=1;" parent="oZ9vA0OR--6r7NKtld0--11" vertex="1">
          <mxGeometry y="40" width="470" height="40" as="geometry" />
        </mxCell>
        <mxCell id="oZ9vA0OR--6r7NKtld0--13" value="" style="line;strokeWidth=1;fillColor=none;align=left;verticalAlign=middle;spacingTop=-1;spacingLeft=3;spacingRight=3;rotatable=0;labelPosition=right;points=[];portConstraint=eastwest;strokeColor=inherit;" parent="oZ9vA0OR--6r7NKtld0--11" vertex="1">
          <mxGeometry y="80" width="470" height="8" as="geometry" />
        </mxCell>
        <mxCell id="oZ9vA0OR--6r7NKtld0--14" value="+ registerOperation(string name, ISimplexOperation&amp;gt;);void&lt;br&gt;+ unRegisterOperation(string name): void&lt;br&gt;+ createOperations(string name,SimplexCreatorSettings settings): ISimplexOperations" style="text;strokeColor=none;fillColor=none;align=left;verticalAlign=top;spacingLeft=4;spacingRight=4;overflow=hidden;rotatable=0;points=[[0,0.5],[1,0.5]];portConstraint=eastwest;whiteSpace=wrap;html=1;" parent="oZ9vA0OR--6r7NKtld0--11" vertex="1">
          <mxGeometry y="88" width="470" height="62" as="geometry" />
        </mxCell>
        <mxCell id="mAnIeyf7UAL2GR0AeoFF-5" value="numer 1" style="rounded=0;whiteSpace=wrap;html=1;" parent="1" vertex="1">
          <mxGeometry x="1040" y="836" width="160" height="44" as="geometry" />
        </mxCell>
        <mxCell id="mAnIeyf7UAL2GR0AeoFF-6" value="numer 2" style="rounded=0;whiteSpace=wrap;html=1;" parent="1" vertex="1">
          <mxGeometry x="1040" y="894" width="160" height="44" as="geometry" />
        </mxCell>
        <mxCell id="mAnIeyf7UAL2GR0AeoFF-7" value="" style="rounded=0;whiteSpace=wrap;html=1;" parent="1" vertex="1">
          <mxGeometry x="1230" y="836" width="160" height="44" as="geometry" />
        </mxCell>
        <mxCell id="mAnIeyf7UAL2GR0AeoFF-8" value="" style="rounded=0;whiteSpace=wrap;html=1;" parent="1" vertex="1">
          <mxGeometry x="1230" y="894" width="160" height="44" as="geometry" />
        </mxCell>
        <mxCell id="mAnIeyf7UAL2GR0AeoFF-9" value="result" style="rounded=0;whiteSpace=wrap;html=1;" parent="1" vertex="1">
          <mxGeometry x="1040" y="959" width="160" height="44" as="geometry" />
        </mxCell>
        <mxCell id="mAnIeyf7UAL2GR0AeoFF-10" value="" style="rounded=0;whiteSpace=wrap;html=1;" parent="1" vertex="1">
          <mxGeometry x="1230" y="959" width="160" height="44" as="geometry" />
        </mxCell>
        <mxCell id="mAnIeyf7UAL2GR0AeoFF-11" value="add" style="rounded=0;whiteSpace=wrap;html=1;" parent="1" vertex="1">
          <mxGeometry x="1230" y="1040" width="160" height="44" as="geometry" />
        </mxCell>
        <mxCell id="TM_uH-M_512eh_OPWazc-3" value="" style="endArrow=diamondThin;endFill=0;endSize=24;html=1;rounded=0;entryX=1;entryY=0.5;entryDx=0;entryDy=0;exitX=0;exitY=0.5;exitDx=0;exitDy=0;" parent="1" source="FgK2PDGZxnkYuvgnImA7-41" target="FgK2PDGZxnkYuvgnImA7-15" edge="1">
          <mxGeometry width="160" relative="1" as="geometry">
            <mxPoint x="1140" y="2350" as="sourcePoint" />
            <mxPoint x="1300" y="2350" as="targetPoint" />
            <Array as="points">
              <mxPoint x="1200" y="2163" />
              <mxPoint x="1200" y="2283" />
            </Array>
          </mxGeometry>
        </mxCell>
        <mxCell id="TM_uH-M_512eh_OPWazc-4" value="" style="endArrow=diamondThin;endFill=0;endSize=24;html=1;rounded=0;exitX=0;exitY=0.5;exitDx=0;exitDy=0;entryX=1;entryY=0.5;entryDx=0;entryDy=0;" parent="1" source="FgK2PDGZxnkYuvgnImA7-36" target="FgK2PDGZxnkYuvgnImA7-15" edge="1">
          <mxGeometry width="160" relative="1" as="geometry">
            <mxPoint x="1140" y="2350" as="sourcePoint" />
            <mxPoint x="1300" y="2350" as="targetPoint" />
            <Array as="points">
              <mxPoint x="1200" y="2383" />
              <mxPoint x="1200" y="2283" />
            </Array>
          </mxGeometry>
        </mxCell>
        <mxCell id="TM_uH-M_512eh_OPWazc-5" value="" style="endArrow=diamondThin;endFill=1;endSize=24;html=1;rounded=0;entryX=1;entryY=0.5;entryDx=0;entryDy=0;exitX=0;exitY=0.5;exitDx=0;exitDy=0;" parent="1" source="FgK2PDGZxnkYuvgnImA7-15" target="FgK2PDGZxnkYuvgnImA7-11" edge="1">
          <mxGeometry width="160" relative="1" as="geometry">
            <mxPoint x="610" y="2390" as="sourcePoint" />
            <mxPoint x="770" y="2390" as="targetPoint" />
          </mxGeometry>
        </mxCell>
        <mxCell id="TM_uH-M_512eh_OPWazc-6" value="" style="endArrow=diamondThin;endFill=0;endSize=24;html=1;rounded=0;entryX=0.75;entryY=0;entryDx=0;entryDy=0;exitX=1;exitY=0.5;exitDx=0;exitDy=0;" parent="1" source="FgK2PDGZxnkYuvgnImA7-4" target="FgK2PDGZxnkYuvgnImA7-10" edge="1">
          <mxGeometry width="160" relative="1" as="geometry">
            <mxPoint x="680" y="2120" as="sourcePoint" />
            <mxPoint x="630" y="2417" as="targetPoint" />
            <Array as="points">
              <mxPoint x="760" y="1983" />
              <mxPoint x="760" y="2170" />
              <mxPoint x="475" y="2170" />
            </Array>
          </mxGeometry>
        </mxCell>
        <mxCell id="TM_uH-M_512eh_OPWazc-7" value="Extends" style="endArrow=block;endSize=16;endFill=0;html=1;rounded=0;entryX=0.75;entryY=0;entryDx=0;entryDy=0;exitX=1;exitY=0.5;exitDx=0;exitDy=0;" parent="1" source="FgK2PDGZxnkYuvgnImA7-30" target="FgK2PDGZxnkYuvgnImA7-1" edge="1">
          <mxGeometry width="160" relative="1" as="geometry">
            <mxPoint x="420" y="1560" as="sourcePoint" />
            <mxPoint x="580" y="1560" as="targetPoint" />
            <Array as="points">
              <mxPoint x="580" y="1586" />
              <mxPoint x="580" y="1643" />
            </Array>
          </mxGeometry>
        </mxCell>
        <mxCell id="TM_uH-M_512eh_OPWazc-8" value="" style="endArrow=diamondThin;endFill=0;endSize=24;html=1;rounded=0;exitX=0.25;exitY=0;exitDx=0;exitDy=0;entryX=0.75;entryY=0;entryDx=0;entryDy=0;" parent="1" source="FgK2PDGZxnkYuvgnImA7-51" target="FgK2PDGZxnkYuvgnImA7-27" edge="1">
          <mxGeometry width="160" relative="1" as="geometry">
            <mxPoint x="590" y="1570" as="sourcePoint" />
            <mxPoint x="750" y="1570" as="targetPoint" />
            <Array as="points">
              <mxPoint x="815" y="1310" />
              <mxPoint x="315" y="1310" />
            </Array>
          </mxGeometry>
        </mxCell>
        <mxCell id="TM_uH-M_512eh_OPWazc-9" value="" style="endArrow=diamondThin;endFill=1;endSize=24;html=1;rounded=0;entryX=1;entryY=0.5;entryDx=0;entryDy=0;exitX=0;exitY=0.5;exitDx=0;exitDy=0;" parent="1" source="FgK2PDGZxnkYuvgnImA7-30" target="FgK2PDGZxnkYuvgnImA7-26" edge="1">
          <mxGeometry width="160" relative="1" as="geometry">
            <mxPoint x="110" y="1770" as="sourcePoint" />
            <mxPoint x="270" y="1770" as="targetPoint" />
            <Array as="points">
              <mxPoint x="-80" y="1586" />
              <mxPoint x="-80" y="2200" />
            </Array>
          </mxGeometry>
        </mxCell>
        <mxCell id="TM_uH-M_512eh_OPWazc-11" value="" style="endArrow=diamondThin;endFill=0;endSize=24;html=1;rounded=0;exitX=0;exitY=0.5;exitDx=0;exitDy=0;entryX=0;entryY=0.5;entryDx=0;entryDy=0;" parent="1" source="FgK2PDGZxnkYuvgnImA7-26" edge="1">
          <mxGeometry width="160" relative="1" as="geometry">
            <mxPoint x="-500" y="1585.9999999999998" as="sourcePoint" />
            <mxPoint x="134.99999999999955" y="2618" as="targetPoint" />
            <Array as="points">
              <mxPoint x="-580" y="2204" />
              <mxPoint x="-581" y="2618" />
            </Array>
          </mxGeometry>
        </mxCell>
        <mxCell id="TM_uH-M_512eh_OPWazc-14" value="Extends" style="endArrow=block;endSize=16;endFill=0;html=1;rounded=0;entryX=0;entryY=0.5;entryDx=0;entryDy=0;exitX=0.5;exitY=0;exitDx=0;exitDy=0;" parent="1" source="FgK2PDGZxnkYuvgnImA7-5" target="FgK2PDGZxnkYuvgnImA7-13" edge="1">
          <mxGeometry width="160" relative="1" as="geometry">
            <mxPoint x="270" y="2680" as="sourcePoint" />
            <mxPoint x="430" y="2680" as="targetPoint" />
            <Array as="points">
              <mxPoint x="350" y="2490" />
              <mxPoint x="20" y="2490" />
              <mxPoint x="20" y="2404" />
            </Array>
          </mxGeometry>
        </mxCell>
        <mxCell id="TM_uH-M_512eh_OPWazc-15" value="abstract SimplexSettings" style="swimlane;fontStyle=1;align=center;verticalAlign=top;childLayout=stackLayout;horizontal=1;startSize=26;horizontalStack=0;resizeParent=1;resizeParentMax=0;resizeLast=0;collapsible=1;marginBottom=0;whiteSpace=wrap;html=1;" parent="1" vertex="1">
          <mxGeometry x="720" y="2530" width="430" height="60" as="geometry" />
        </mxCell>
        <mxCell id="TM_uH-M_512eh_OPWazc-17" value="" style="line;strokeWidth=1;fillColor=none;align=left;verticalAlign=middle;spacingTop=-1;spacingLeft=3;spacingRight=3;rotatable=0;labelPosition=right;points=[];portConstraint=eastwest;strokeColor=inherit;" parent="TM_uH-M_512eh_OPWazc-15" vertex="1">
          <mxGeometry y="26" width="430" height="8" as="geometry" />
        </mxCell>
        <mxCell id="TM_uH-M_512eh_OPWazc-18" value="+&amp;nbsp;" style="text;strokeColor=none;fillColor=none;align=left;verticalAlign=top;spacingLeft=4;spacingRight=4;overflow=hidden;rotatable=0;points=[[0,0.5],[1,0.5]];portConstraint=eastwest;whiteSpace=wrap;html=1;" parent="TM_uH-M_512eh_OPWazc-15" vertex="1">
          <mxGeometry y="34" width="430" height="26" as="geometry" />
        </mxCell>
        <mxCell id="TM_uH-M_512eh_OPWazc-19" value="" style="endArrow=diamondThin;endFill=1;endSize=24;html=1;rounded=0;entryX=1;entryY=0.5;entryDx=0;entryDy=0;exitX=0;exitY=0.25;exitDx=0;exitDy=0;" parent="1" source="TM_uH-M_512eh_OPWazc-15" target="FgK2PDGZxnkYuvgnImA7-6" edge="1">
          <mxGeometry width="160" relative="1" as="geometry">
            <mxPoint x="720" y="2559.4700000000003" as="sourcePoint" />
            <mxPoint x="580" y="2559.4700000000003" as="targetPoint" />
            <Array as="points">
              <mxPoint x="650" y="2545" />
              <mxPoint x="650" y="2618" />
            </Array>
          </mxGeometry>
        </mxCell>
        <mxCell id="TM_uH-M_512eh_OPWazc-20" value="Extends" style="endArrow=block;endSize=16;endFill=0;html=1;rounded=0;entryX=0;entryY=0.5;entryDx=0;entryDy=0;exitX=0.25;exitY=0;exitDx=0;exitDy=0;" parent="1" source="TM_uH-M_512eh_OPWazc-15" target="FgK2PDGZxnkYuvgnImA7-17" edge="1">
          <mxGeometry width="160" relative="1" as="geometry">
            <mxPoint x="770" y="2500" as="sourcePoint" />
            <mxPoint x="930" y="2500" as="targetPoint" />
            <Array as="points">
              <mxPoint x="828" y="2490" />
              <mxPoint x="680" y="2490" />
              <mxPoint x="680" y="2389" />
            </Array>
          </mxGeometry>
        </mxCell>
        <mxCell id="TM_uH-M_512eh_OPWazc-21" value="" style="endArrow=block;dashed=1;endFill=0;endSize=12;html=1;rounded=0;entryX=0;entryY=0.5;entryDx=0;entryDy=0;exitX=0.25;exitY=0;exitDx=0;exitDy=0;" parent="1" source="tqZblh4qjC0oX4zUGTXa-12" target="FgK2PDGZxnkYuvgnImA7-8" edge="1">
          <mxGeometry width="160" relative="1" as="geometry">
            <mxPoint x="252.50000000000045" y="2840" as="sourcePoint" />
            <mxPoint x="550" y="2820" as="targetPoint" />
            <Array as="points">
              <mxPoint x="273" y="2760" />
              <mxPoint x="80" y="2760" />
              <mxPoint x="80" y="2701" />
            </Array>
          </mxGeometry>
        </mxCell>
        <mxCell id="TM_uH-M_512eh_OPWazc-25" value="" style="endArrow=block;dashed=1;endFill=0;endSize=12;html=1;rounded=0;entryX=0;entryY=0.5;entryDx=0;entryDy=0;exitX=0.25;exitY=0;exitDx=0;exitDy=0;" parent="1" source="tqZblh4qjC0oX4zUGTXa-16" target="TM_uH-M_512eh_OPWazc-18" edge="1">
          <mxGeometry width="160" relative="1" as="geometry">
            <mxPoint x="862.5" y="2850" as="sourcePoint" />
            <mxPoint x="750" y="2730" as="targetPoint" />
            <Array as="points">
              <mxPoint x="893" y="2750" />
              <mxPoint x="670" y="2750" />
              <mxPoint x="670" y="2577" />
            </Array>
          </mxGeometry>
        </mxCell>
        <mxCell id="tqZblh4qjC0oX4zUGTXa-12" value="BasicSimplexFItter&amp;lt;DerivedSettings = BasicSimplexFitterSettings&amp;gt;" style="swimlane;fontStyle=1;align=center;verticalAlign=top;childLayout=stackLayout;horizontal=1;startSize=26;horizontalStack=0;resizeParent=1;resizeParentMax=0;resizeLast=0;collapsible=1;marginBottom=0;whiteSpace=wrap;html=1;" parent="1" vertex="1">
          <mxGeometry x="160" y="2840" width="450" height="218" as="geometry" />
        </mxCell>
        <mxCell id="tqZblh4qjC0oX4zUGTXa-13" value="+ field: type" style="text;strokeColor=none;fillColor=none;align=left;verticalAlign=top;spacingLeft=4;spacingRight=4;overflow=hidden;rotatable=0;points=[[0,0.5],[1,0.5]];portConstraint=eastwest;whiteSpace=wrap;html=1;" parent="tqZblh4qjC0oX4zUGTXa-12" vertex="1">
          <mxGeometry y="26" width="450" height="64" as="geometry" />
        </mxCell>
        <mxCell id="tqZblh4qjC0oX4zUGTXa-14" value="" style="line;strokeWidth=1;fillColor=none;align=left;verticalAlign=middle;spacingTop=-1;spacingLeft=3;spacingRight=3;rotatable=0;labelPosition=right;points=[];portConstraint=eastwest;strokeColor=inherit;" parent="tqZblh4qjC0oX4zUGTXa-12" vertex="1">
          <mxGeometry y="90" width="450" height="8" as="geometry" />
        </mxCell>
        <mxCell id="tqZblh4qjC0oX4zUGTXa-15" value="+ virtual void setUp(const DerivedSettings&amp;amp; setting) override;&lt;br&gt;+&amp;nbsp;virtual void fit() override;" style="text;strokeColor=none;fillColor=none;align=left;verticalAlign=top;spacingLeft=4;spacingRight=4;overflow=hidden;rotatable=0;points=[[0,0.5],[1,0.5]];portConstraint=eastwest;whiteSpace=wrap;html=1;" parent="tqZblh4qjC0oX4zUGTXa-12" vertex="1">
          <mxGeometry y="98" width="450" height="120" as="geometry" />
        </mxCell>
        <mxCell id="tqZblh4qjC0oX4zUGTXa-16" value="BasicSimplexFitterSettings" style="swimlane;fontStyle=1;align=center;verticalAlign=top;childLayout=stackLayout;horizontal=1;startSize=26;horizontalStack=0;resizeParent=1;resizeParentMax=0;resizeLast=0;collapsible=1;marginBottom=0;whiteSpace=wrap;html=1;" parent="1" vertex="1">
          <mxGeometry x="780" y="2840" width="450" height="124" as="geometry" />
        </mxCell>
        <mxCell id="tqZblh4qjC0oX4zUGTXa-17" value="- double m_aplpha;&lt;br&gt;- double m_beta;&lt;br&gt;- double m_gamma;&lt;br&gt;- double m_delta;" style="text;strokeColor=none;fillColor=none;align=left;verticalAlign=top;spacingLeft=4;spacingRight=4;overflow=hidden;rotatable=0;points=[[0,0.5],[1,0.5]];portConstraint=eastwest;whiteSpace=wrap;html=1;" parent="tqZblh4qjC0oX4zUGTXa-16" vertex="1">
          <mxGeometry y="26" width="450" height="64" as="geometry" />
        </mxCell>
        <mxCell id="tqZblh4qjC0oX4zUGTXa-18" value="" style="line;strokeWidth=1;fillColor=none;align=left;verticalAlign=middle;spacingTop=-1;spacingLeft=3;spacingRight=3;rotatable=0;labelPosition=right;points=[];portConstraint=eastwest;strokeColor=inherit;" parent="tqZblh4qjC0oX4zUGTXa-16" vertex="1">
          <mxGeometry y="90" width="450" height="8" as="geometry" />
        </mxCell>
        <mxCell id="tqZblh4qjC0oX4zUGTXa-19" value="+ getters for coefficients" style="text;strokeColor=none;fillColor=none;align=left;verticalAlign=top;spacingLeft=4;spacingRight=4;overflow=hidden;rotatable=0;points=[[0,0.5],[1,0.5]];portConstraint=eastwest;whiteSpace=wrap;html=1;" parent="tqZblh4qjC0oX4zUGTXa-16" vertex="1">
          <mxGeometry y="98" width="450" height="26" as="geometry" />
        </mxCell>
        <mxCell id="tqZblh4qjC0oX4zUGTXa-20" value="" style="endArrow=diamondThin;endFill=1;endSize=24;html=1;rounded=0;exitX=0;exitY=0.5;exitDx=0;exitDy=0;entryX=1;entryY=0.5;entryDx=0;entryDy=0;" parent="1" source="tqZblh4qjC0oX4zUGTXa-17" target="tqZblh4qjC0oX4zUGTXa-13" edge="1">
          <mxGeometry width="160" relative="1" as="geometry">
            <mxPoint x="660" y="3020" as="sourcePoint" />
            <mxPoint x="820" y="3020" as="targetPoint" />
          </mxGeometry>
        </mxCell>
        <mxCell id="tqZblh4qjC0oX4zUGTXa-26" value="&lt;p style=&quot;margin:0px;margin-top:4px;text-align:center;&quot;&gt;&lt;i&gt;&amp;lt;&amp;lt;Interface&amp;gt;&amp;gt;&lt;/i&gt;&lt;br&gt;&lt;b&gt;CreatorInterface&amp;lt;CreatorInput, CreatorOutput, CreatorSettings&amp;gt;&lt;/b&gt;&lt;/p&gt;&lt;hr size=&quot;1&quot;&gt;&lt;p style=&quot;margin:0px;margin-left:4px;&quot;&gt;+ using In = CreatorInput;&lt;/p&gt;&lt;p style=&quot;margin:0px;margin-left:4px;&quot;&gt;+ using Out = CreatorOutput;&lt;/p&gt;&lt;p style=&quot;margin:0px;margin-left:4px;&quot;&gt;+ using Settings = CreatorSettings;&lt;/p&gt;&lt;p style=&quot;margin:0px;margin-left:4px;&quot;&gt;&lt;br&gt;&lt;/p&gt;&lt;p style=&quot;margin:0px;margin-left:4px;&quot;&gt;- Settings m_settings;&lt;/p&gt;&lt;hr size=&quot;1&quot;&gt;&lt;p style=&quot;margin:0px;margin-left:4px;&quot;&gt;+ virtual Out operator()(In) = 0;&lt;br&gt;+ virtual void updateSettings(const Settings&amp;amp;);&lt;/p&gt;&lt;p style=&quot;margin:0px;margin-left:4px;&quot;&gt;+&amp;nbsp;virtual const Settings&amp;amp; getSettings();&lt;/p&gt;" style="verticalAlign=top;align=left;overflow=fill;fontSize=12;fontFamily=Helvetica;html=1;whiteSpace=wrap;" parent="1" vertex="1">
          <mxGeometry x="-1835" y="995" width="600" height="240" as="geometry" />
        </mxCell>
        <mxCell id="tqZblh4qjC0oX4zUGTXa-27" value="Factory&amp;lt;Creator extends CreatorInterface&amp;gt;" style="swimlane;fontStyle=1;align=center;verticalAlign=top;childLayout=stackLayout;horizontal=1;startSize=26;horizontalStack=0;resizeParent=1;resizeParentMax=0;resizeLast=0;collapsible=1;marginBottom=0;whiteSpace=wrap;html=1;" parent="1" vertex="1">
          <mxGeometry x="-560" y="970" width="490" height="230" as="geometry" />
        </mxCell>
        <mxCell id="tqZblh4qjC0oX4zUGTXa-28" value="- std::unordered_map&amp;lt;std::string, std::unique_ptr&amp;lt;Creator&amp;gt;&amp;gt; m_creatorList;" style="text;strokeColor=none;fillColor=none;align=left;verticalAlign=top;spacingLeft=4;spacingRight=4;overflow=hidden;rotatable=0;points=[[0,0.5],[1,0.5]];portConstraint=eastwest;whiteSpace=wrap;html=1;" parent="tqZblh4qjC0oX4zUGTXa-27" vertex="1">
          <mxGeometry y="26" width="490" height="26" as="geometry" />
        </mxCell>
        <mxCell id="tqZblh4qjC0oX4zUGTXa-29" value="" style="line;strokeWidth=1;fillColor=none;align=left;verticalAlign=middle;spacingTop=-1;spacingLeft=3;spacingRight=3;rotatable=0;labelPosition=right;points=[];portConstraint=eastwest;strokeColor=inherit;" parent="tqZblh4qjC0oX4zUGTXa-27" vertex="1">
          <mxGeometry y="52" width="490" height="8" as="geometry" />
        </mxCell>
        <mxCell id="tqZblh4qjC0oX4zUGTXa-30" value="+ void registerCreator(const std::string&amp;amp;, const Creator&amp;amp;);&lt;br&gt;+ Creator::Out invoke(const std::string&amp;amp;, const Creator::In&amp;amp;);&lt;br&gt;+&amp;nbsp;void updateSettings(const std::string&amp;amp;, const Creator::Settings&amp;amp;);&lt;br&gt;-&amp;nbsp;bool checkIfAvailable(const std::string&amp;amp;);" style="text;strokeColor=none;fillColor=none;align=left;verticalAlign=top;spacingLeft=4;spacingRight=4;overflow=hidden;rotatable=0;points=[[0,0.5],[1,0.5]];portConstraint=eastwest;whiteSpace=wrap;html=1;" parent="tqZblh4qjC0oX4zUGTXa-27" vertex="1">
          <mxGeometry y="60" width="490" height="170" as="geometry" />
        </mxCell>
        <mxCell id="tqZblh4qjC0oX4zUGTXa-31" value="Use" style="endArrow=open;endSize=12;dashed=1;html=1;rounded=0;exitX=0;exitY=0.5;exitDx=0;exitDy=0;entryX=1;entryY=0.5;entryDx=0;entryDy=0;" parent="1" source="tqZblh4qjC0oX4zUGTXa-30" target="tqZblh4qjC0oX4zUGTXa-26" edge="1">
          <mxGeometry width="160" relative="1" as="geometry">
            <mxPoint x="-1550" y="1274" as="sourcePoint" />
            <mxPoint x="-1390" y="1274" as="targetPoint" />
          </mxGeometry>
        </mxCell>
        <mxCell id="tqZblh4qjC0oX4zUGTXa-32" value="Extends" style="endArrow=block;endSize=16;endFill=0;html=1;rounded=0;entryX=0.5;entryY=1;entryDx=0;entryDy=0;exitX=0.5;exitY=0;exitDx=0;exitDy=0;" parent="1" source="zNB6hBDcjk5UrMVVQGbG-13" target="tqZblh4qjC0oX4zUGTXa-26" edge="1">
          <mxGeometry width="160" relative="1" as="geometry">
            <mxPoint x="-1370" y="1440" as="sourcePoint" />
            <mxPoint x="-1210" y="1440" as="targetPoint" />
          </mxGeometry>
        </mxCell>
        <mxCell id="tqZblh4qjC0oX4zUGTXa-33" value="" style="endArrow=block;dashed=1;endFill=0;endSize=12;html=1;rounded=0;entryX=0.471;entryY=0.99;entryDx=0;entryDy=0;entryPerimeter=0;exitX=0.5;exitY=0;exitDx=0;exitDy=0;" parent="1" source="zNB6hBDcjk5UrMVVQGbG-31" target="zNB6hBDcjk5UrMVVQGbG-16" edge="1">
          <mxGeometry width="160" relative="1" as="geometry">
            <mxPoint x="-1640" y="1990" as="sourcePoint" />
            <mxPoint x="-1480" y="1990" as="targetPoint" />
          </mxGeometry>
        </mxCell>
        <mxCell id="tqZblh4qjC0oX4zUGTXa-34" value="" style="endArrow=block;dashed=1;endFill=0;endSize=12;html=1;rounded=0;entryX=0.466;entryY=1.047;entryDx=0;entryDy=0;entryPerimeter=0;exitX=0.5;exitY=0;exitDx=0;exitDy=0;" parent="1" source="zNB6hBDcjk5UrMVVQGbG-43" target="zNB6hBDcjk5UrMVVQGbG-16" edge="1">
          <mxGeometry width="160" relative="1" as="geometry">
            <mxPoint x="-1640" y="1990" as="sourcePoint" />
            <mxPoint x="-1480" y="1990" as="targetPoint" />
          </mxGeometry>
        </mxCell>
        <mxCell id="tqZblh4qjC0oX4zUGTXa-35" value="" style="endArrow=block;dashed=1;endFill=0;endSize=12;html=1;rounded=0;entryX=0.472;entryY=1.023;entryDx=0;entryDy=0;entryPerimeter=0;exitX=0.5;exitY=0;exitDx=0;exitDy=0;" parent="1" source="zNB6hBDcjk5UrMVVQGbG-39" target="zNB6hBDcjk5UrMVVQGbG-16" edge="1">
          <mxGeometry width="160" relative="1" as="geometry">
            <mxPoint x="-1640" y="1990" as="sourcePoint" />
            <mxPoint x="-1550" y="1820" as="targetPoint" />
          </mxGeometry>
        </mxCell>
        <mxCell id="tqZblh4qjC0oX4zUGTXa-36" value="" style="endArrow=block;dashed=1;endFill=0;endSize=12;html=1;rounded=0;exitX=0.5;exitY=0;exitDx=0;exitDy=0;entryX=0.471;entryY=1.018;entryDx=0;entryDy=0;entryPerimeter=0;" parent="1" source="zNB6hBDcjk5UrMVVQGbG-35" target="zNB6hBDcjk5UrMVVQGbG-16" edge="1">
          <mxGeometry width="160" relative="1" as="geometry">
            <mxPoint x="-1640" y="1990" as="sourcePoint" />
            <mxPoint x="-1550" y="1830" as="targetPoint" />
          </mxGeometry>
        </mxCell>
        <mxCell id="tqZblh4qjC0oX4zUGTXa-37" value="Extends" style="endArrow=block;endSize=16;endFill=0;html=1;rounded=0;exitX=0.5;exitY=0;exitDx=0;exitDy=0;" parent="1" source="zNB6hBDcjk5UrMVVQGbG-26" target="tqZblh4qjC0oX4zUGTXa-30" edge="1">
          <mxGeometry width="160" relative="1" as="geometry">
            <mxPoint x="-820" y="1410" as="sourcePoint" />
            <mxPoint x="-660" y="1410" as="targetPoint" />
            <Array as="points">
              <mxPoint x="-815" y="1450" />
              <mxPoint x="-315" y="1450" />
            </Array>
          </mxGeometry>
        </mxCell>
        <mxCell id="tqZblh4qjC0oX4zUGTXa-38" value="" style="endArrow=diamondThin;endFill=1;endSize=24;html=1;rounded=0;exitX=0;exitY=0.5;exitDx=0;exitDy=0;entryX=1;entryY=0.5;entryDx=0;entryDy=0;" parent="1" source="zNB6hBDcjk5UrMVVQGbG-14" target="zNB6hBDcjk5UrMVVQGbG-19" edge="1">
          <mxGeometry width="160" relative="1" as="geometry">
            <mxPoint x="-1840" y="1910" as="sourcePoint" />
            <mxPoint x="-1680" y="1910" as="targetPoint" />
          </mxGeometry>
        </mxCell>
        <mxCell id="tqZblh4qjC0oX4zUGTXa-39" value="" style="endArrow=diamondThin;endFill=1;endSize=24;html=1;rounded=0;exitX=0;exitY=0.5;exitDx=0;exitDy=0;entryX=1;entryY=0.5;entryDx=0;entryDy=0;" parent="1" source="zNB6hBDcjk5UrMVVQGbG-26" target="zNB6hBDcjk5UrMVVQGbG-14" edge="1">
          <mxGeometry width="160" relative="1" as="geometry">
            <mxPoint x="-1260" y="1830" as="sourcePoint" />
            <mxPoint x="-1100" y="1830" as="targetPoint" />
          </mxGeometry>
        </mxCell>
        <mxCell id="tqZblh4qjC0oX4zUGTXa-40" value="SimplexCreatorFactory extends Factory&amp;lt;ISimplexFactory&amp;gt;" style="swimlane;fontStyle=1;align=center;verticalAlign=top;childLayout=stackLayout;horizontal=1;startSize=40;horizontalStack=0;resizeParent=1;resizeParentMax=0;resizeLast=0;collapsible=1;marginBottom=0;whiteSpace=wrap;html=1;" parent="1" vertex="1">
          <mxGeometry x="-550" y="1523" width="430" height="48" as="geometry" />
        </mxCell>
        <mxCell id="tqZblh4qjC0oX4zUGTXa-41" value="" style="line;strokeWidth=1;fillColor=none;align=left;verticalAlign=middle;spacingTop=-1;spacingLeft=3;spacingRight=3;rotatable=0;labelPosition=right;points=[];portConstraint=eastwest;strokeColor=inherit;" parent="tqZblh4qjC0oX4zUGTXa-40" vertex="1">
          <mxGeometry y="40" width="430" height="8" as="geometry" />
        </mxCell>
        <mxCell id="tqZblh4qjC0oX4zUGTXa-42" value="Extends" style="endArrow=block;endSize=16;endFill=0;html=1;rounded=0;entryX=0.505;entryY=0.991;entryDx=0;entryDy=0;entryPerimeter=0;exitX=0.5;exitY=0;exitDx=0;exitDy=0;" parent="1" source="tqZblh4qjC0oX4zUGTXa-40" target="tqZblh4qjC0oX4zUGTXa-30" edge="1">
          <mxGeometry width="160" relative="1" as="geometry">
            <mxPoint x="-380" y="1670" as="sourcePoint" />
            <mxPoint x="-310" y="1200" as="targetPoint" />
            <Array as="points">
              <mxPoint x="-335" y="1490" />
              <mxPoint x="-315" y="1490" />
              <mxPoint x="-315" y="1450" />
            </Array>
          </mxGeometry>
        </mxCell>
        <mxCell id="tqZblh4qjC0oX4zUGTXa-44" value="&amp;lt;&amp;lt;interface&amp;gt;&amp;gt;&lt;br&gt;&lt;i&gt;ISimplexFactory&amp;lt;SimplexPoint, SimplexFigure, SimplexCreatorSettings&amp;gt;&lt;/i&gt;" style="swimlane;fontStyle=1;align=center;verticalAlign=top;childLayout=stackLayout;horizontal=1;startSize=50;horizontalStack=0;resizeParent=1;resizeParentMax=0;resizeLast=0;collapsible=1;marginBottom=0;whiteSpace=wrap;html=1;" parent="1" vertex="1">
          <mxGeometry x="-580" y="1660" width="490" height="120" as="geometry" />
        </mxCell>
        <mxCell id="tqZblh4qjC0oX4zUGTXa-45" value="-&amp;nbsp;std::string m_operationName;" style="text;strokeColor=none;fillColor=none;align=left;verticalAlign=top;spacingLeft=4;spacingRight=4;overflow=hidden;rotatable=0;points=[[0,0.5],[1,0.5]];portConstraint=eastwest;whiteSpace=wrap;html=1;" parent="tqZblh4qjC0oX4zUGTXa-44" vertex="1">
          <mxGeometry y="50" width="490" height="30" as="geometry" />
        </mxCell>
        <mxCell id="tqZblh4qjC0oX4zUGTXa-46" value="" style="line;strokeWidth=1;fillColor=none;align=left;verticalAlign=middle;spacingTop=-1;spacingLeft=3;spacingRight=3;rotatable=0;labelPosition=right;points=[];portConstraint=eastwest;strokeColor=inherit;" parent="tqZblh4qjC0oX4zUGTXa-44" vertex="1">
          <mxGeometry y="80" width="490" height="8" as="geometry" />
        </mxCell>
        <mxCell id="tqZblh4qjC0oX4zUGTXa-47" value="+&amp;nbsp;const std::string&amp;amp; getOpeartionName() const;" style="text;strokeColor=none;fillColor=none;align=left;verticalAlign=top;spacingLeft=4;spacingRight=4;overflow=hidden;rotatable=0;points=[[0,0.5],[1,0.5]];portConstraint=eastwest;whiteSpace=wrap;html=1;" parent="tqZblh4qjC0oX4zUGTXa-44" vertex="1">
          <mxGeometry y="88" width="490" height="32" as="geometry" />
        </mxCell>
        <mxCell id="tqZblh4qjC0oX4zUGTXa-48" value="" style="endArrow=diamondThin;endFill=1;endSize=24;html=1;rounded=0;entryX=0.5;entryY=0;entryDx=0;entryDy=0;exitX=0.5;exitY=1;exitDx=0;exitDy=0;" parent="1" source="tqZblh4qjC0oX4zUGTXa-40" target="tqZblh4qjC0oX4zUGTXa-44" edge="1">
          <mxGeometry width="160" relative="1" as="geometry">
            <mxPoint x="-580" y="1710" as="sourcePoint" />
            <mxPoint x="-420" y="1710" as="targetPoint" />
          </mxGeometry>
        </mxCell>
        <mxCell id="tqZblh4qjC0oX4zUGTXa-49" value="Use" style="endArrow=open;endSize=12;dashed=1;html=1;rounded=0;entryX=0;entryY=0.5;entryDx=0;entryDy=0;exitX=1;exitY=0.5;exitDx=0;exitDy=0;" parent="1" source="zNB6hBDcjk5UrMVVQGbG-16" target="FgK2PDGZxnkYuvgnImA7-24" edge="1">
          <mxGeometry width="160" relative="1" as="geometry">
            <mxPoint x="-670" y="2070" as="sourcePoint" />
            <mxPoint x="-510" y="2070" as="targetPoint" />
            <Array as="points">
              <mxPoint x="-770" y="1810" />
              <mxPoint x="-770" y="2118" />
            </Array>
          </mxGeometry>
        </mxCell>
        <mxCell id="tqZblh4qjC0oX4zUGTXa-50" value="Extends" style="endArrow=block;endSize=16;endFill=0;html=1;rounded=0;entryX=0.75;entryY=1;entryDx=0;entryDy=0;exitX=0;exitY=0.25;exitDx=0;exitDy=0;" parent="1" source="tqZblh4qjC0oX4zUGTXa-44" target="tqZblh4qjC0oX4zUGTXa-26" edge="1">
          <mxGeometry width="160" relative="1" as="geometry">
            <mxPoint x="-1070" y="1500" as="sourcePoint" />
            <mxPoint x="-910" y="1500" as="targetPoint" />
            <Array as="points">
              <mxPoint x="-1385" y="1690" />
            </Array>
          </mxGeometry>
        </mxCell>
      </root>
    </mxGraphModel>
  </diagram>
  <diagram id="5JIXa3Vy7ghOc6fq4fTJ" name="BasicSimplexFitter UML">
    <mxGraphModel dx="1105" dy="654" grid="1" gridSize="10" guides="1" tooltips="1" connect="1" arrows="1" fold="1" page="1" pageScale="1" pageWidth="827" pageHeight="1169" math="0" shadow="0">
      <root>
        <mxCell id="0" />
        <mxCell id="1" parent="0" />
        <mxCell id="lIor64Jzp0sANuZdktSn-48" value="" style="edgeStyle=orthogonalEdgeStyle;rounded=0;orthogonalLoop=1;jettySize=auto;html=1;" parent="1" source="lIor64Jzp0sANuZdktSn-30" target="lIor64Jzp0sANuZdktSn-47" edge="1">
          <mxGeometry relative="1" as="geometry" />
        </mxCell>
        <mxCell id="lIor64Jzp0sANuZdktSn-30" value="minimize" style="verticalLabelPosition=middle;verticalAlign=middle;html=1;shape=process;whiteSpace=wrap;rounded=1;size=0.14;arcSize=6;fillColor=#f8cecc;strokeColor=#b85450;labelPosition=center;align=center;fontColor=#000000;" parent="1" vertex="1">
          <mxGeometry x="40" y="80" width="240" height="40" as="geometry" />
        </mxCell>
        <mxCell id="lIor64Jzp0sANuZdktSn-54" value="" style="edgeStyle=orthogonalEdgeStyle;rounded=0;orthogonalLoop=1;jettySize=auto;html=1;" parent="1" source="lIor64Jzp0sANuZdktSn-31" target="lIor64Jzp0sANuZdktSn-53" edge="1">
          <mxGeometry relative="1" as="geometry" />
        </mxCell>
        <mxCell id="lIor64Jzp0sANuZdktSn-31" value="oneStep" style="verticalLabelPosition=middle;verticalAlign=middle;html=1;shape=process;whiteSpace=wrap;rounded=1;size=0.14;arcSize=6;fillColor=#d5e8d4;strokeColor=#82b366;labelPosition=center;align=center;fontColor=#000000;" parent="1" vertex="1">
          <mxGeometry x="100" y="360" width="120" height="40" as="geometry" />
        </mxCell>
        <mxCell id="lIor64Jzp0sANuZdktSn-37" value="" style="edgeStyle=orthogonalEdgeStyle;rounded=0;orthogonalLoop=1;jettySize=auto;html=1;" parent="1" source="lIor64Jzp0sANuZdktSn-33" target="lIor64Jzp0sANuZdktSn-36" edge="1">
          <mxGeometry relative="1" as="geometry" />
        </mxCell>
        <mxCell id="lIor64Jzp0sANuZdktSn-33" value="oneStep" style="verticalLabelPosition=middle;verticalAlign=middle;html=1;shape=process;whiteSpace=wrap;rounded=1;size=0.14;arcSize=6;fillColor=#d5e8d4;strokeColor=#82b366;labelPosition=center;align=center;fontColor=#000000;" parent="1" vertex="1">
          <mxGeometry x="640" y="80" width="160" height="40" as="geometry" />
        </mxCell>
        <mxCell id="lIor64Jzp0sANuZdktSn-39" value="" style="edgeStyle=orthogonalEdgeStyle;rounded=0;orthogonalLoop=1;jettySize=auto;html=1;" parent="1" source="lIor64Jzp0sANuZdktSn-36" target="lIor64Jzp0sANuZdktSn-38" edge="1">
          <mxGeometry relative="1" as="geometry" />
        </mxCell>
        <mxCell id="lIor64Jzp0sANuZdktSn-36" value="reflect" style="verticalLabelPosition=middle;verticalAlign=middle;html=1;shape=process;whiteSpace=wrap;rounded=1;size=0.14;arcSize=6;fillColor=#ffe6cc;strokeColor=#d79b00;labelPosition=center;align=center;fontColor=#000000;" parent="1" vertex="1">
          <mxGeometry x="660" y="160" width="120" height="40" as="geometry" />
        </mxCell>
        <mxCell id="lIor64Jzp0sANuZdktSn-41" value="" style="edgeStyle=orthogonalEdgeStyle;rounded=0;orthogonalLoop=1;jettySize=auto;html=1;" parent="1" source="lIor64Jzp0sANuZdktSn-38" target="lIor64Jzp0sANuZdktSn-40" edge="1">
          <mxGeometry relative="1" as="geometry" />
        </mxCell>
        <mxCell id="lIor64Jzp0sANuZdktSn-38" value="expand" style="verticalLabelPosition=middle;verticalAlign=middle;html=1;shape=process;whiteSpace=wrap;rounded=1;size=0.14;arcSize=6;fillColor=#ffe6cc;strokeColor=#d79b00;labelPosition=center;align=center;fontColor=#000000;" parent="1" vertex="1">
          <mxGeometry x="660" y="240" width="120" height="40" as="geometry" />
        </mxCell>
        <mxCell id="lIor64Jzp0sANuZdktSn-43" value="" style="edgeStyle=orthogonalEdgeStyle;rounded=0;orthogonalLoop=1;jettySize=auto;html=1;" parent="1" source="lIor64Jzp0sANuZdktSn-40" target="lIor64Jzp0sANuZdktSn-42" edge="1">
          <mxGeometry relative="1" as="geometry" />
        </mxCell>
        <mxCell id="lIor64Jzp0sANuZdktSn-40" value="contract" style="verticalLabelPosition=middle;verticalAlign=middle;html=1;shape=process;whiteSpace=wrap;rounded=1;size=0.14;arcSize=6;fillColor=#ffe6cc;strokeColor=#d79b00;labelPosition=center;align=center;fontColor=#000000;" parent="1" vertex="1">
          <mxGeometry x="660" y="320" width="120" height="40" as="geometry" />
        </mxCell>
        <mxCell id="lIor64Jzp0sANuZdktSn-45" value="" style="edgeStyle=orthogonalEdgeStyle;rounded=0;orthogonalLoop=1;jettySize=auto;html=1;" parent="1" source="lIor64Jzp0sANuZdktSn-42" target="lIor64Jzp0sANuZdktSn-44" edge="1">
          <mxGeometry relative="1" as="geometry" />
        </mxCell>
        <mxCell id="lIor64Jzp0sANuZdktSn-42" value="decideOperation" style="verticalLabelPosition=middle;verticalAlign=middle;html=1;shape=process;whiteSpace=wrap;rounded=1;size=0.14;arcSize=6;fillColor=#ffe6cc;strokeColor=#d79b00;labelPosition=center;align=center;fontColor=#000000;" parent="1" vertex="1">
          <mxGeometry x="650" y="400" width="140" height="40" as="geometry" />
        </mxCell>
        <mxCell id="lIor64Jzp0sANuZdktSn-58" value="" style="edgeStyle=orthogonalEdgeStyle;rounded=0;orthogonalLoop=1;jettySize=auto;html=1;" parent="1" source="lIor64Jzp0sANuZdktSn-69" target="lIor64Jzp0sANuZdktSn-57" edge="1">
          <mxGeometry relative="1" as="geometry" />
        </mxCell>
        <mxCell id="lIor64Jzp0sANuZdktSn-44" value="doOperation" style="verticalLabelPosition=middle;verticalAlign=middle;html=1;shape=process;whiteSpace=wrap;rounded=1;size=0.14;arcSize=6;fillColor=#ffe6cc;strokeColor=#d79b00;labelPosition=center;align=center;fontColor=#000000;" parent="1" vertex="1">
          <mxGeometry x="650" y="480" width="140" height="40" as="geometry" />
        </mxCell>
        <mxCell id="lIor64Jzp0sANuZdktSn-50" value="" style="edgeStyle=orthogonalEdgeStyle;rounded=0;orthogonalLoop=1;jettySize=auto;html=1;" parent="1" source="lIor64Jzp0sANuZdktSn-46" target="lIor64Jzp0sANuZdktSn-31" edge="1">
          <mxGeometry relative="1" as="geometry" />
        </mxCell>
        <mxCell id="lIor64Jzp0sANuZdktSn-46" value="while&amp;nbsp;&lt;br&gt;checkConditions" style="strokeWidth=2;html=1;shape=mxgraph.flowchart.loop_limit;whiteSpace=wrap;fillColor=#e1d5e7;strokeColor=#9673a6;fontColor=#000000;" parent="1" vertex="1">
          <mxGeometry x="110" y="240" width="100" height="80" as="geometry" />
        </mxCell>
        <mxCell id="lIor64Jzp0sANuZdktSn-49" value="" style="edgeStyle=orthogonalEdgeStyle;rounded=0;orthogonalLoop=1;jettySize=auto;html=1;" parent="1" source="lIor64Jzp0sANuZdktSn-47" target="lIor64Jzp0sANuZdktSn-46" edge="1">
          <mxGeometry relative="1" as="geometry" />
        </mxCell>
        <mxCell id="lIor64Jzp0sANuZdktSn-47" value="&amp;nbsp;checkStopConditions" style="verticalLabelPosition=middle;verticalAlign=middle;html=1;shape=process;whiteSpace=wrap;rounded=1;size=0.14;arcSize=6;fillColor=#d5e8d4;strokeColor=#82b366;labelPosition=center;align=center;fontColor=#000000;" parent="1" vertex="1">
          <mxGeometry x="70" y="160" width="180" height="40" as="geometry" />
        </mxCell>
        <mxCell id="lIor64Jzp0sANuZdktSn-59" style="edgeStyle=orthogonalEdgeStyle;rounded=0;orthogonalLoop=1;jettySize=auto;html=1;entryX=1;entryY=0.5;entryDx=0;entryDy=0;entryPerimeter=0;" parent="1" source="lIor64Jzp0sANuZdktSn-53" target="lIor64Jzp0sANuZdktSn-46" edge="1">
          <mxGeometry relative="1" as="geometry">
            <Array as="points">
              <mxPoint x="250" y="460" />
              <mxPoint x="250" y="280" />
            </Array>
          </mxGeometry>
        </mxCell>
        <mxCell id="lIor64Jzp0sANuZdktSn-66" value="" style="edgeStyle=orthogonalEdgeStyle;rounded=0;orthogonalLoop=1;jettySize=auto;html=1;" parent="1" source="lIor64Jzp0sANuZdktSn-68" target="lIor64Jzp0sANuZdktSn-62" edge="1">
          <mxGeometry relative="1" as="geometry" />
        </mxCell>
        <mxCell id="lIor64Jzp0sANuZdktSn-53" value="updateState" style="verticalLabelPosition=middle;verticalAlign=middle;html=1;shape=process;whiteSpace=wrap;rounded=1;size=0.14;arcSize=6;fillColor=#d5e8d4;strokeColor=#82b366;labelPosition=center;align=center;fontColor=#000000;" parent="1" vertex="1">
          <mxGeometry x="100" y="440" width="120" height="40" as="geometry" />
        </mxCell>
        <mxCell id="k5Vp3oZocsIIKovayw91-2" value="" style="edgeStyle=orthogonalEdgeStyle;rounded=0;orthogonalLoop=1;jettySize=auto;html=1;" parent="1" source="lIor64Jzp0sANuZdktSn-55" target="k5Vp3oZocsIIKovayw91-1" edge="1">
          <mxGeometry relative="1" as="geometry" />
        </mxCell>
        <mxCell id="lIor64Jzp0sANuZdktSn-55" value="&amp;nbsp;checkStopConditions" style="verticalLabelPosition=middle;verticalAlign=middle;html=1;shape=process;whiteSpace=wrap;rounded=1;size=0.14;arcSize=6;fillColor=#d5e8d4;strokeColor=#82b366;labelPosition=center;align=center;fontColor=#000000;" parent="1" vertex="1">
          <mxGeometry x="360" y="80" width="160" height="40" as="geometry" />
        </mxCell>
        <mxCell id="k5Vp3oZocsIIKovayw91-22" value="" style="edgeStyle=orthogonalEdgeStyle;rounded=0;orthogonalLoop=1;jettySize=auto;html=1;" parent="1" source="lIor64Jzp0sANuZdktSn-56" target="k5Vp3oZocsIIKovayw91-20" edge="1">
          <mxGeometry relative="1" as="geometry" />
        </mxCell>
        <mxCell id="lIor64Jzp0sANuZdktSn-56" value="updateState" style="verticalLabelPosition=middle;verticalAlign=middle;html=1;shape=process;whiteSpace=wrap;rounded=1;size=0.14;arcSize=6;fillColor=#d5e8d4;strokeColor=#82b366;labelPosition=center;align=center;fontColor=#000000;" parent="1" vertex="1">
          <mxGeometry x="360" y="480" width="160" height="40" as="geometry" />
        </mxCell>
        <mxCell id="lIor64Jzp0sANuZdktSn-57" value="END" style="ellipse;whiteSpace=wrap;html=1;fillColor=#e3c800;fontColor=#000000;strokeColor=#B09500;" parent="1" vertex="1">
          <mxGeometry x="680" y="600" width="80" height="45" as="geometry" />
        </mxCell>
        <mxCell id="lIor64Jzp0sANuZdktSn-62" value="END" style="ellipse;whiteSpace=wrap;html=1;fillColor=#e3c800;fontColor=#000000;strokeColor=#B09500;" parent="1" vertex="1">
          <mxGeometry x="120" y="562" width="80" height="45" as="geometry" />
        </mxCell>
        <mxCell id="lIor64Jzp0sANuZdktSn-67" value="" style="edgeStyle=orthogonalEdgeStyle;rounded=0;orthogonalLoop=1;jettySize=auto;html=1;" parent="1" source="lIor64Jzp0sANuZdktSn-53" target="lIor64Jzp0sANuZdktSn-68" edge="1">
          <mxGeometry relative="1" as="geometry">
            <mxPoint x="160" y="480" as="sourcePoint" />
            <mxPoint x="160" y="562" as="targetPoint" />
          </mxGeometry>
        </mxCell>
        <mxCell id="lIor64Jzp0sANuZdktSn-68" value="return parameters" style="rounded=1;whiteSpace=wrap;html=1;absoluteArcSize=1;arcSize=14;strokeWidth=2;" parent="1" vertex="1">
          <mxGeometry x="100" y="510" width="120" height="30" as="geometry" />
        </mxCell>
        <mxCell id="lIor64Jzp0sANuZdktSn-70" value="" style="edgeStyle=orthogonalEdgeStyle;rounded=0;orthogonalLoop=1;jettySize=auto;html=1;" parent="1" source="lIor64Jzp0sANuZdktSn-44" target="lIor64Jzp0sANuZdktSn-69" edge="1">
          <mxGeometry relative="1" as="geometry">
            <mxPoint x="720" y="520" as="sourcePoint" />
            <mxPoint x="720" y="600" as="targetPoint" />
          </mxGeometry>
        </mxCell>
        <mxCell id="lIor64Jzp0sANuZdktSn-69" value="return figure" style="rounded=1;whiteSpace=wrap;html=1;absoluteArcSize=1;arcSize=14;strokeWidth=2;" parent="1" vertex="1">
          <mxGeometry x="660" y="550" width="120" height="30" as="geometry" />
        </mxCell>
        <mxCell id="k5Vp3oZocsIIKovayw91-4" value="" style="edgeStyle=orthogonalEdgeStyle;rounded=1;orthogonalLoop=1;jettySize=auto;html=1;entryX=0.5;entryY=0;entryDx=0;entryDy=0;" parent="1" source="k5Vp3oZocsIIKovayw91-1" target="k5Vp3oZocsIIKovayw91-10" edge="1">
          <mxGeometry relative="1" as="geometry">
            <mxPoint x="560.0212765957447" y="260" as="targetPoint" />
            <Array as="points">
              <mxPoint x="555" y="220" />
            </Array>
          </mxGeometry>
        </mxCell>
        <mxCell id="k5Vp3oZocsIIKovayw91-14" value="yes" style="edgeLabel;html=1;align=center;verticalAlign=middle;resizable=0;points=[];" parent="k5Vp3oZocsIIKovayw91-4" vertex="1" connectable="0">
          <mxGeometry x="-0.4526" y="-1" relative="1" as="geometry">
            <mxPoint as="offset" />
          </mxGeometry>
        </mxCell>
        <mxCell id="k5Vp3oZocsIIKovayw91-7" style="edgeStyle=orthogonalEdgeStyle;rounded=1;orthogonalLoop=1;jettySize=auto;html=1;entryX=0.5;entryY=0;entryDx=0;entryDy=0;entryPerimeter=0;" parent="1" source="k5Vp3oZocsIIKovayw91-1" target="k5Vp3oZocsIIKovayw91-6" edge="1">
          <mxGeometry relative="1" as="geometry">
            <Array as="points">
              <mxPoint x="353" y="220" />
            </Array>
          </mxGeometry>
        </mxCell>
        <mxCell id="k5Vp3oZocsIIKovayw91-15" value="else" style="edgeLabel;html=1;align=center;verticalAlign=middle;resizable=0;points=[];" parent="k5Vp3oZocsIIKovayw91-7" vertex="1" connectable="0">
          <mxGeometry x="-0.1303" y="2" relative="1" as="geometry">
            <mxPoint as="offset" />
          </mxGeometry>
        </mxCell>
        <mxCell id="k5Vp3oZocsIIKovayw91-1" value="if&amp;nbsp;&lt;br&gt;iterations &amp;gt;&amp;nbsp;&lt;br&gt;maxIterations" style="strokeWidth=2;html=1;shape=mxgraph.flowchart.decision;whiteSpace=wrap;" parent="1" vertex="1">
          <mxGeometry x="380" y="160" width="120" height="120" as="geometry" />
        </mxCell>
        <mxCell id="k5Vp3oZocsIIKovayw91-13" value="" style="edgeStyle=orthogonalEdgeStyle;rounded=1;orthogonalLoop=1;jettySize=auto;html=1;" parent="1" source="k5Vp3oZocsIIKovayw91-6" target="k5Vp3oZocsIIKovayw91-12" edge="1">
          <mxGeometry relative="1" as="geometry" />
        </mxCell>
        <mxCell id="k5Vp3oZocsIIKovayw91-17" value="else" style="edgeLabel;html=1;align=center;verticalAlign=middle;resizable=0;points=[];" parent="k5Vp3oZocsIIKovayw91-13" vertex="1" connectable="0">
          <mxGeometry x="-0.0417" y="1" relative="1" as="geometry">
            <mxPoint as="offset" />
          </mxGeometry>
        </mxCell>
        <mxCell id="k5Vp3oZocsIIKovayw91-6" value="if&amp;nbsp;&lt;br&gt;bestError &amp;gt;&amp;nbsp;&lt;br&gt;maxError" style="strokeWidth=2;html=1;shape=mxgraph.flowchart.decision;whiteSpace=wrap;" parent="1" vertex="1">
          <mxGeometry x="293" y="250" width="120" height="120" as="geometry" />
        </mxCell>
        <mxCell id="k5Vp3oZocsIIKovayw91-9" value="" style="edgeStyle=orthogonalEdgeStyle;rounded=1;orthogonalLoop=1;jettySize=auto;html=1;" parent="1" target="k5Vp3oZocsIIKovayw91-10" edge="1">
          <mxGeometry relative="1" as="geometry">
            <mxPoint x="413" y="310" as="sourcePoint" />
            <Array as="points">
              <mxPoint x="413" y="311" />
              <mxPoint x="430" y="311" />
              <mxPoint x="430" y="290" />
            </Array>
          </mxGeometry>
        </mxCell>
        <mxCell id="k5Vp3oZocsIIKovayw91-16" value="yes" style="edgeLabel;html=1;align=center;verticalAlign=middle;resizable=0;points=[];" parent="k5Vp3oZocsIIKovayw91-9" vertex="1" connectable="0">
          <mxGeometry x="0.2082" relative="1" as="geometry">
            <mxPoint as="offset" />
          </mxGeometry>
        </mxCell>
        <mxCell id="k5Vp3oZocsIIKovayw91-10" value="return true" style="rounded=1;whiteSpace=wrap;html=1;strokeWidth=2;fillColor=#e3c800;fontColor=#000000;strokeColor=#B09500;" parent="1" vertex="1">
          <mxGeometry x="510" y="275" width="90" height="30" as="geometry" />
        </mxCell>
        <mxCell id="k5Vp3oZocsIIKovayw91-12" value="return false" style="rounded=1;whiteSpace=wrap;html=1;strokeWidth=2;fillColor=#e3c800;fontColor=#000000;strokeColor=#B09500;" parent="1" vertex="1">
          <mxGeometry x="270" y="405" width="80" height="30" as="geometry" />
        </mxCell>
        <mxCell id="k5Vp3oZocsIIKovayw91-24" value="" style="edgeStyle=orthogonalEdgeStyle;rounded=0;orthogonalLoop=1;jettySize=auto;html=1;" parent="1" source="k5Vp3oZocsIIKovayw91-20" target="k5Vp3oZocsIIKovayw91-23" edge="1">
          <mxGeometry relative="1" as="geometry" />
        </mxCell>
        <mxCell id="k5Vp3oZocsIIKovayw91-20" value="update BestError" style="rounded=1;whiteSpace=wrap;html=1;strokeWidth=2;" parent="1" vertex="1">
          <mxGeometry x="380" y="562" width="120" height="30" as="geometry" />
        </mxCell>
        <mxCell id="k5Vp3oZocsIIKovayw91-26" value="" style="edgeStyle=orthogonalEdgeStyle;rounded=0;orthogonalLoop=1;jettySize=auto;html=1;" parent="1" source="k5Vp3oZocsIIKovayw91-23" target="k5Vp3oZocsIIKovayw91-25" edge="1">
          <mxGeometry relative="1" as="geometry" />
        </mxCell>
        <mxCell id="k5Vp3oZocsIIKovayw91-23" value="update iteration" style="rounded=1;whiteSpace=wrap;html=1;strokeWidth=2;" parent="1" vertex="1">
          <mxGeometry x="380" y="630" width="120" height="30" as="geometry" />
        </mxCell>
        <mxCell id="k5Vp3oZocsIIKovayw91-25" value="END" style="ellipse;whiteSpace=wrap;html=1;fillColor=#e3c800;fontColor=#000000;strokeColor=#B09500;" parent="1" vertex="1">
          <mxGeometry x="400" y="690" width="80" height="45" as="geometry" />
        </mxCell>
      </root>
    </mxGraphModel>
  </diagram>
  <diagram id="z1TY1lDRCsScnQF_tXfc" name="DepthSimplexFitter UML">
    <mxGraphModel dx="1400" dy="828" grid="1" gridSize="10" guides="1" tooltips="1" connect="1" arrows="1" fold="1" page="1" pageScale="1" pageWidth="827" pageHeight="1169" math="0" shadow="0">
      <root>
        <mxCell id="0" />
        <mxCell id="1" parent="0" />
        <mxCell id="HbYKdjodRTIudvduQx6L-1" value="minimize" style="verticalLabelPosition=middle;verticalAlign=middle;html=1;shape=process;whiteSpace=wrap;rounded=1;size=0.14;arcSize=6;fillColor=#cdeb8b;strokeColor=#36393d;labelPosition=center;align=center;fontColor=#000000;" parent="1" vertex="1">
          <mxGeometry x="40" y="60" width="160" height="40" as="geometry" />
        </mxCell>
        <mxCell id="HbYKdjodRTIudvduQx6L-7" value="" style="edgeStyle=orthogonalEdgeStyle;rounded=0;orthogonalLoop=1;jettySize=auto;html=1;" parent="1" source="HbYKdjodRTIudvduQx6L-1" target="HbYKdjodRTIudvduQx6L-6" edge="1">
          <mxGeometry relative="1" as="geometry">
            <mxPoint x="120" y="100" as="sourcePoint" />
            <mxPoint x="120" y="170" as="targetPoint" />
          </mxGeometry>
        </mxCell>
        <mxCell id="HbYKdjodRTIudvduQx6L-6" value="readSettings" style="verticalLabelPosition=middle;verticalAlign=middle;html=1;shape=process;whiteSpace=wrap;rounded=1;size=0.14;arcSize=6;fillColor=#ffe6cc;strokeColor=#d79b00;labelPosition=center;align=center;fontColor=#000000;" parent="1" vertex="1">
          <mxGeometry x="55" y="120" width="130" height="40" as="geometry" />
        </mxCell>
        <mxCell id="HbYKdjodRTIudvduQx6L-29" style="edgeStyle=orthogonalEdgeStyle;rounded=1;orthogonalLoop=1;jettySize=auto;html=1;entryX=1;entryY=0.5;entryDx=0;entryDy=0;entryPerimeter=0;" parent="1" source="HbYKdjodRTIudvduQx6L-14" target="HbYKdjodRTIudvduQx6L-24" edge="1">
          <mxGeometry relative="1" as="geometry">
            <Array as="points">
              <mxPoint x="503" y="250" />
              <mxPoint x="503" y="180" />
            </Array>
          </mxGeometry>
        </mxCell>
        <mxCell id="HbYKdjodRTIudvduQx6L-31" value="" style="edgeStyle=orthogonalEdgeStyle;rounded=0;orthogonalLoop=1;jettySize=auto;html=1;" parent="1" source="HbYKdjodRTIudvduQx6L-14" target="HbYKdjodRTIudvduQx6L-30" edge="1">
          <mxGeometry relative="1" as="geometry" />
        </mxCell>
        <mxCell id="HbYKdjodRTIudvduQx6L-14" value="&lt;font style=&quot;font-size: 9px;&quot;&gt;setBoundsFor&lt;br&gt;Space&lt;/font&gt;" style="shape=process;whiteSpace=wrap;html=1;backgroundOutline=1;fillColor=#ffe6cc;strokeColor=#d79b00;rounded=1;arcSize=6;fontColor=#000000;" parent="1" vertex="1">
          <mxGeometry x="386.5" y="240" width="90" height="30" as="geometry" />
        </mxCell>
        <mxCell id="HbYKdjodRTIudvduQx6L-48" value="" style="edgeStyle=orthogonalEdgeStyle;rounded=0;orthogonalLoop=1;jettySize=auto;html=1;" parent="1" source="HbYKdjodRTIudvduQx6L-16" target="HbYKdjodRTIudvduQx6L-47" edge="1">
          <mxGeometry relative="1" as="geometry" />
        </mxCell>
        <mxCell id="HbYKdjodRTIudvduQx6L-16" value="setSimplexSettings" style="verticalLabelPosition=middle;verticalAlign=middle;html=1;shape=process;whiteSpace=wrap;rounded=1;size=0.14;arcSize=6;fillColor=#ffe6cc;strokeColor=#d79b00;labelPosition=center;align=center;fontColor=#000000;" parent="1" vertex="1">
          <mxGeometry x="47.5" y="360" width="145" height="40" as="geometry" />
        </mxCell>
        <mxCell id="HbYKdjodRTIudvduQx6L-25" value="" style="edgeStyle=orthogonalEdgeStyle;rounded=0;orthogonalLoop=1;jettySize=auto;html=1;" parent="1" source="HbYKdjodRTIudvduQx6L-18" target="HbYKdjodRTIudvduQx6L-24" edge="1">
          <mxGeometry relative="1" as="geometry" />
        </mxCell>
        <mxCell id="HbYKdjodRTIudvduQx6L-18" value="setSimplexSettings" style="verticalLabelPosition=middle;verticalAlign=middle;html=1;shape=process;whiteSpace=wrap;rounded=1;size=0.14;arcSize=6;fillColor=#ffe6cc;strokeColor=#d79b00;labelPosition=center;align=center;fontColor=#000000;" parent="1" vertex="1">
          <mxGeometry x="360" y="80" width="145" height="40" as="geometry" />
        </mxCell>
        <mxCell id="HbYKdjodRTIudvduQx6L-20" value="processor version" style="rounded=0;whiteSpace=wrap;html=1;" parent="1" vertex="1">
          <mxGeometry x="40" width="200" height="30" as="geometry" />
        </mxCell>
        <mxCell id="HbYKdjodRTIudvduQx6L-26" value="" style="edgeStyle=orthogonalEdgeStyle;rounded=0;orthogonalLoop=1;jettySize=auto;html=1;" parent="1" source="HbYKdjodRTIudvduQx6L-24" target="HbYKdjodRTIudvduQx6L-14" edge="1">
          <mxGeometry relative="1" as="geometry" />
        </mxCell>
        <mxCell id="HbYKdjodRTIudvduQx6L-24" value="for simplex:Simplexes" style="strokeWidth=2;html=1;shape=mxgraph.flowchart.loop_limit;whiteSpace=wrap;" parent="1" vertex="1">
          <mxGeometry x="380" y="150" width="103" height="60" as="geometry" />
        </mxCell>
        <mxCell id="HbYKdjodRTIudvduQx6L-30" value="End" style="strokeWidth=2;html=1;shape=mxgraph.flowchart.start_1;whiteSpace=wrap;fillColor=#e3c800;strokeColor=#B09500;fontColor=#000000;" parent="1" vertex="1">
          <mxGeometry x="405.88" y="300" width="51.25" height="30" as="geometry" />
        </mxCell>
        <mxCell id="HbYKdjodRTIudvduQx6L-46" value="" style="edgeStyle=orthogonalEdgeStyle;rounded=0;orthogonalLoop=1;jettySize=auto;html=1;" parent="1" source="HbYKdjodRTIudvduQx6L-57" target="HbYKdjodRTIudvduQx6L-45" edge="1">
          <mxGeometry relative="1" as="geometry">
            <mxPoint x="120" y="160" as="sourcePoint" />
            <mxPoint x="120" y="260" as="targetPoint" />
          </mxGeometry>
        </mxCell>
        <mxCell id="HbYKdjodRTIudvduQx6L-63" style="edgeStyle=orthogonalEdgeStyle;rounded=0;orthogonalLoop=1;jettySize=auto;html=1;entryX=0.5;entryY=0;entryDx=0;entryDy=0;" parent="1" source="HbYKdjodRTIudvduQx6L-45" target="HbYKdjodRTIudvduQx6L-16" edge="1">
          <mxGeometry relative="1" as="geometry" />
        </mxCell>
        <mxCell id="HbYKdjodRTIudvduQx6L-45" value="for depth: depths" style="strokeWidth=2;html=1;shape=mxgraph.flowchart.loop_limit;whiteSpace=wrap;" parent="1" vertex="1">
          <mxGeometry x="68.5" y="260" width="103" height="60" as="geometry" />
        </mxCell>
        <mxCell id="HbYKdjodRTIudvduQx6L-50" value="" style="edgeStyle=orthogonalEdgeStyle;rounded=0;orthogonalLoop=1;jettySize=auto;html=1;" parent="1" source="HbYKdjodRTIudvduQx6L-47" target="HbYKdjodRTIudvduQx6L-49" edge="1">
          <mxGeometry relative="1" as="geometry" />
        </mxCell>
        <mxCell id="HbYKdjodRTIudvduQx6L-47" value="minimizeSimplex" style="verticalLabelPosition=middle;verticalAlign=middle;html=1;shape=process;whiteSpace=wrap;rounded=1;size=0.14;arcSize=6;fillColor=#ffe6cc;strokeColor=#d79b00;labelPosition=center;align=center;fontColor=#000000;" parent="1" vertex="1">
          <mxGeometry x="47.5" y="430" width="145" height="40" as="geometry" />
        </mxCell>
        <mxCell id="HbYKdjodRTIudvduQx6L-56" value="" style="edgeStyle=orthogonalEdgeStyle;rounded=0;orthogonalLoop=1;jettySize=auto;html=1;" parent="1" source="HbYKdjodRTIudvduQx6L-59" target="HbYKdjodRTIudvduQx6L-55" edge="1">
          <mxGeometry relative="1" as="geometry" />
        </mxCell>
        <mxCell id="HbYKdjodRTIudvduQx6L-49" value="updateState" style="verticalLabelPosition=middle;verticalAlign=middle;html=1;shape=process;whiteSpace=wrap;rounded=1;size=0.14;arcSize=6;fillColor=#ffe6cc;strokeColor=#d79b00;labelPosition=center;align=center;fontColor=#000000;" parent="1" vertex="1">
          <mxGeometry x="47.5" y="500" width="145" height="40" as="geometry" />
        </mxCell>
        <mxCell id="HbYKdjodRTIudvduQx6L-55" value="return bestParameters" style="rounded=1;whiteSpace=wrap;html=1;absoluteArcSize=1;arcSize=14;strokeWidth=2;fillColor=#e3c800;fontColor=#000000;strokeColor=#B09500;" parent="1" vertex="1">
          <mxGeometry x="50" y="650" width="140" height="40" as="geometry" />
        </mxCell>
        <mxCell id="HbYKdjodRTIudvduQx6L-58" value="" style="edgeStyle=orthogonalEdgeStyle;rounded=0;orthogonalLoop=1;jettySize=auto;html=1;" parent="1" source="HbYKdjodRTIudvduQx6L-6" target="HbYKdjodRTIudvduQx6L-57" edge="1">
          <mxGeometry relative="1" as="geometry">
            <mxPoint x="120" y="160" as="sourcePoint" />
            <mxPoint x="120" y="210" as="targetPoint" />
          </mxGeometry>
        </mxCell>
        <mxCell id="HbYKdjodRTIudvduQx6L-57" value="generateFirstSimplexes" style="verticalLabelPosition=middle;verticalAlign=middle;html=1;shape=process;whiteSpace=wrap;rounded=1;size=0.14;arcSize=6;fillColor=#ffe6cc;strokeColor=#d79b00;labelPosition=center;align=center;fontColor=#000000;" parent="1" vertex="1">
          <mxGeometry x="33.75" y="190" width="172.5" height="40" as="geometry" />
        </mxCell>
        <mxCell id="HbYKdjodRTIudvduQx6L-60" value="" style="edgeStyle=orthogonalEdgeStyle;rounded=0;orthogonalLoop=1;jettySize=auto;html=1;" parent="1" source="HbYKdjodRTIudvduQx6L-49" target="HbYKdjodRTIudvduQx6L-59" edge="1">
          <mxGeometry relative="1" as="geometry">
            <mxPoint x="120" y="540" as="sourcePoint" />
            <mxPoint x="120" y="650" as="targetPoint" />
          </mxGeometry>
        </mxCell>
        <mxCell id="HbYKdjodRTIudvduQx6L-61" style="edgeStyle=orthogonalEdgeStyle;rounded=1;orthogonalLoop=1;jettySize=auto;html=1;entryX=1;entryY=0.5;entryDx=0;entryDy=0;entryPerimeter=0;" parent="1" source="HbYKdjodRTIudvduQx6L-59" target="HbYKdjodRTIudvduQx6L-45" edge="1">
          <mxGeometry relative="1" as="geometry">
            <Array as="points">
              <mxPoint x="210" y="585" />
              <mxPoint x="210" y="290" />
            </Array>
          </mxGeometry>
        </mxCell>
        <mxCell id="HbYKdjodRTIudvduQx6L-59" value="generateNewSimplexs" style="verticalLabelPosition=middle;verticalAlign=middle;html=1;shape=process;whiteSpace=wrap;rounded=1;size=0.14;arcSize=6;fillColor=#ffe6cc;strokeColor=#d79b00;labelPosition=center;align=center;fontColor=#000000;" parent="1" vertex="1">
          <mxGeometry x="33.75" y="570" width="172.5" height="40" as="geometry" />
        </mxCell>
      </root>
    </mxGraphModel>
  </diagram>
  <diagram id="cTUDoqbYJ1XG3rxKsuXF" name="Simulated Annealing SimpelxFitter">
    <mxGraphModel dx="673" dy="1576" grid="1" gridSize="10" guides="1" tooltips="1" connect="1" arrows="1" fold="1" page="1" pageScale="1" pageWidth="827" pageHeight="1169" math="0" shadow="0">
      <root>
        <mxCell id="0" />
        <mxCell id="1" parent="0" />
        <mxCell id="3cUqxDO8sWKHgP7Gdzsx-3" value="" style="edgeStyle=orthogonalEdgeStyle;rounded=0;orthogonalLoop=1;jettySize=auto;html=1;" edge="1" parent="1" source="3cUqxDO8sWKHgP7Gdzsx-1" target="3cUqxDO8sWKHgP7Gdzsx-2">
          <mxGeometry relative="1" as="geometry" />
        </mxCell>
        <mxCell id="3cUqxDO8sWKHgP7Gdzsx-1" value="generatePoint" style="verticalLabelPosition=middle;verticalAlign=middle;html=1;shape=process;whiteSpace=wrap;rounded=1;size=0.14;arcSize=6;labelPosition=center;align=center;" vertex="1" parent="1">
          <mxGeometry x="240" y="80" width="160" height="40" as="geometry" />
        </mxCell>
        <mxCell id="3cUqxDO8sWKHgP7Gdzsx-2" value="calculateProbability" style="verticalLabelPosition=middle;verticalAlign=middle;html=1;shape=process;whiteSpace=wrap;rounded=1;size=0.14;arcSize=6;labelPosition=center;align=center;" vertex="1" parent="1">
          <mxGeometry x="240" y="160" width="160" height="40" as="geometry" />
        </mxCell>
        <mxCell id="3cUqxDO8sWKHgP7Gdzsx-17" value="" style="edgeStyle=orthogonalEdgeStyle;rounded=0;orthogonalLoop=1;jettySize=auto;html=1;entryX=0.5;entryY=0;entryDx=0;entryDy=0;" edge="1" parent="1" source="3cUqxDO8sWKHgP7Gdzsx-26" target="3cUqxDO8sWKHgP7Gdzsx-12">
          <mxGeometry relative="1" as="geometry">
            <mxPoint x="320" y="280" as="targetPoint" />
          </mxGeometry>
        </mxCell>
        <mxCell id="3cUqxDO8sWKHgP7Gdzsx-11" style="edgeStyle=orthogonalEdgeStyle;rounded=0;orthogonalLoop=1;jettySize=auto;html=1;entryX=0.5;entryY=0;entryDx=0;entryDy=0;" edge="1" parent="1" source="3cUqxDO8sWKHgP7Gdzsx-9" target="3cUqxDO8sWKHgP7Gdzsx-1">
          <mxGeometry relative="1" as="geometry" />
        </mxCell>
        <mxCell id="3cUqxDO8sWKHgP7Gdzsx-9" value="Aneal" style="verticalLabelPosition=middle;verticalAlign=middle;html=1;shape=process;whiteSpace=wrap;rounded=1;size=0.14;arcSize=6;labelPosition=center;align=center;fillColor=#1ba1e2;fontColor=#ffffff;strokeColor=#006EAF;" vertex="1" parent="1">
          <mxGeometry x="240" width="160" height="40" as="geometry" />
        </mxCell>
        <mxCell id="3cUqxDO8sWKHgP7Gdzsx-12" value="returnPointAndProbability" style="verticalLabelPosition=middle;verticalAlign=middle;html=1;shape=process;whiteSpace=wrap;rounded=1;size=0.14;arcSize=6;labelPosition=center;align=center;" vertex="1" parent="1">
          <mxGeometry x="215" y="320" width="210" height="40" as="geometry" />
        </mxCell>
        <mxCell id="3cUqxDO8sWKHgP7Gdzsx-21" value="SimmulatedAnnealingFactory" style="swimlane;fontStyle=1;align=center;verticalAlign=top;childLayout=stackLayout;horizontal=1;startSize=26;horizontalStack=0;resizeParent=1;resizeParentMax=0;resizeLast=0;collapsible=1;marginBottom=0;whiteSpace=wrap;html=1;" vertex="1" parent="1">
          <mxGeometry x="480" y="10" width="230" height="180" as="geometry" />
        </mxCell>
        <mxCell id="3cUqxDO8sWKHgP7Gdzsx-22" value="- m_temperature: double&lt;div&gt;- m_coolingRate: double&lt;/div&gt;&lt;div&gt;- m_noiseFactor: double&lt;/div&gt;&lt;div&gt;- m_numerbOfAnnealingPoints&lt;span style=&quot;white-space: pre;&quot;&gt;&#x9;&lt;/span&gt;&lt;span style=&quot;white-space: pre;&quot;&gt;&#x9;&lt;/span&gt;&lt;/div&gt;" style="text;strokeColor=none;fillColor=none;align=left;verticalAlign=top;spacingLeft=4;spacingRight=4;overflow=hidden;rotatable=0;points=[[0,0.5],[1,0.5]];portConstraint=eastwest;whiteSpace=wrap;html=1;" vertex="1" parent="3cUqxDO8sWKHgP7Gdzsx-21">
          <mxGeometry y="26" width="230" height="84" as="geometry" />
        </mxCell>
        <mxCell id="3cUqxDO8sWKHgP7Gdzsx-23" value="" style="line;strokeWidth=1;fillColor=none;align=left;verticalAlign=middle;spacingTop=-1;spacingLeft=3;spacingRight=3;rotatable=0;labelPosition=right;points=[];portConstraint=eastwest;strokeColor=inherit;" vertex="1" parent="3cUqxDO8sWKHgP7Gdzsx-21">
          <mxGeometry y="110" width="230" height="8" as="geometry" />
        </mxCell>
        <mxCell id="3cUqxDO8sWKHgP7Gdzsx-24" value="+ aneal(Input): Output&lt;div&gt;- calculateProbability(): double&lt;/div&gt;&lt;div&gt;- updateTemperature(): void&lt;/div&gt;" style="text;strokeColor=none;fillColor=none;align=left;verticalAlign=top;spacingLeft=4;spacingRight=4;overflow=hidden;rotatable=0;points=[[0,0.5],[1,0.5]];portConstraint=eastwest;whiteSpace=wrap;html=1;" vertex="1" parent="3cUqxDO8sWKHgP7Gdzsx-21">
          <mxGeometry y="118" width="230" height="62" as="geometry" />
        </mxCell>
        <mxCell id="3cUqxDO8sWKHgP7Gdzsx-25" value="template&amp;lt;class Input,class Output&amp;gt;" style="rounded=1;whiteSpace=wrap;html=1;absoluteArcSize=1;arcSize=14;strokeWidth=2;dashed=1;opacity=40;" vertex="1" parent="1">
          <mxGeometry x="640" y="-20" width="120" height="40" as="geometry" />
        </mxCell>
        <mxCell id="3cUqxDO8sWKHgP7Gdzsx-27" value="" style="edgeStyle=orthogonalEdgeStyle;rounded=0;orthogonalLoop=1;jettySize=auto;html=1;entryX=0.5;entryY=0;entryDx=0;entryDy=0;exitX=0.5;exitY=1;exitDx=0;exitDy=0;" edge="1" parent="1" source="3cUqxDO8sWKHgP7Gdzsx-2" target="3cUqxDO8sWKHgP7Gdzsx-26">
          <mxGeometry relative="1" as="geometry">
            <mxPoint x="320" y="230" as="sourcePoint" />
            <mxPoint x="320" y="270" as="targetPoint" />
          </mxGeometry>
        </mxCell>
        <mxCell id="3cUqxDO8sWKHgP7Gdzsx-26" value="updateTemperature" style="verticalLabelPosition=middle;verticalAlign=middle;html=1;shape=process;whiteSpace=wrap;rounded=1;size=0.14;arcSize=6;labelPosition=center;align=center;" vertex="1" parent="1">
          <mxGeometry x="240" y="240" width="160" height="40" as="geometry" />
        </mxCell>
      </root>
    </mxGraphModel>
  </diagram>
</mxfile>
